<?xml version="1.0" encoding="utf-8"?>
<!-- Generator: Adobe Illustrator 24.0.2, SVG Export Plug-In . SVG Version: 6.00 Build 0)  -->
<svg version="1.1" id="Capa_1" xmlns="http://www.w3.org/2000/svg" xmlns:xlink="http://www.w3.org/1999/xlink" x="0px" y="0px"
	 viewBox="0 0 298.06 383.88" style="enable-background:new 0 0 298.06 383.88;" xml:space="preserve">
<style type="text/css">
	.st0{fill:#FFFFFF;}
</style>
<path class="st0" d="M28.17-261.68c-55.89,0-111.78,0-167.67,0c0-128,0-256,0-384c128,0,256,0,384,0c0,128,0,256,0,384
	c-37.43,0-74.85,0-112.28,0c0.76-0.33,1.51-0.72,2.29-0.98c10.69-3.6,17.23-12.82,17.18-24.08c-0.03-7.3-3.29-13.1-8.41-18.23
	c5.27-5.2,8.41-11.16,8.45-18.61c0.04-7.58-3.15-13.64-8.46-18.92c5.34-5.25,8.42-11.22,8.46-18.67c0.04-7.6-3.24-13.61-8.44-18.87
	c0.78-0.82,1.38-1.44,1.96-2.08c12.13-13.31,6.58-34.7-10.63-39.92c-4.17-1.27-8.84-1.07-13.29-1.23c-3.83-0.13-6.17,2.05-6.34,5.35
	c-0.19,3.54,1.98,5.92,5.92,6.28c1.98,0.18,3.99,0.03,5.98,0.08c7.54,0.17,12.92,5.25,13.18,12.41c0.26,7.09-4.85,12.57-12.37,13.28
	c-3.83,0.36-6.12,2.43-6.24,5.65c-0.13,3.39,2.17,5.71,6.14,6.17c7.64,0.89,12.44,5.8,12.49,12.76c0.04,6.96-4.88,12.09-12.35,12.9
	c-4.03,0.43-6.33,2.65-6.27,6.04c0.06,3.35,2.38,5.43,6.48,5.8c7.08,0.64,12.08,5.9,12.14,12.75c0.06,6.83-4.76,12.05-11.94,12.89
	c-4.49,0.53-6.73,2.55-6.69,6.05c0.03,3.43,2.22,5.28,6.84,5.78c6.25,0.68,10.88,5.17,11.63,11.28c0.75,6.05-2.42,11.63-8.15,13.57
	c-2.29,0.78-4.88,0.93-7.34,0.94c-27.44,0.06-54.88-0.11-82.32,0.1c-17.62,0.13-34.03-3.69-49.08-13.05
	c-1.58-0.98-3.7-1.43-5.6-1.52c-4.81-0.21-9.64-0.07-14.18-0.07c-0.33-0.55-0.44-0.65-0.44-0.75c-0.04-6.36-0.05-12.72-0.1-19.08
	c-0.04-4.59-2.1-7.09-5.81-7.13c-3.74-0.04-5.93,2.45-5.97,7c-0.06,5.61,0.02,11.23-0.03,16.84c-0.07,9.65-6.27,15.82-15.94,15.85
	c-11.47,0.04-22.95,0-34.42,0.02c-4.67,0.01-7.21,1.97-7.35,5.59c-0.15,3.78,2.53,6.15,7.26,6.17c11.72,0.05,23.45,0.1,35.17-0.03
	c6.96-0.08,13.82-1.89,18.19-7.32c4.13-5.13,8.8-6.02,14.57-5.44c1.73,0.18,3.53-0.21,5.23,0.08c2.38,0.41,4.77,1,7.01,1.88
	c7.97,3.1,15.78,6.61,23.84,9.46C18.84-263.17,23.59-262.66,28.17-261.68z M91.68-560.22c-0.08,0.3-0.16,0.6-0.25,0.9
	c-1.32,0-2.64,0-3.97,0c-12.1,0-24.2-0.03-36.29,0.01c-4.78,0.02-7.26,1.76-7.31,5.6c-0.14,11.35-0.12,22.7,0,34.04
	c0.03,3.17,2.57,5.43,5.52,5.5c3.06,0.08,5.69-2.27,5.77-5.64c0.16-6.61,0.08-13.22,0.1-19.83c0.01-2.58,0-5.15,0-8.01
	c1.85,0,3.2,0,4.56,0c12.35,0,24.69,0.03,37.04-0.01c5.54-0.02,9.46-3.15,10.33-8.34c0.69-4.11-1.32-7.14-4.25-9.8
	c-16.34-14.83-32.65-29.71-48.98-44.56c-10.88-9.9-21.75-19.82-32.67-29.68c-7.1-6.41-15.64-6.81-22.25-0.82
	c-27.72,25.12-55.38,50.32-83.03,75.52c-3.91,3.57-4.88,7.24-3.28,11.37c1.66,4.28,4.95,6.32,10.35,6.33
	c12.22,0.02,24.44,0.01,36.67,0.01c1.32,0,2.63,0,4.15,0c0,8.38-0.03,16.23,0.01,24.08c0.02,4.49,2.25,7.23,5.78,7.31
	c3.69,0.08,5.99-2.72,6.01-7.43c0.03-9.1,0.01-18.21,0.01-27.31c-0.01-6.43-1.83-8.31-8.18-8.32c-11.97-0.02-23.95,0-35.92-0.02
	c-1.28,0-2.56-0.12-4.89-0.23c1.66-1.4,2.51-2.08,3.33-2.82c24.82-22.56,49.64-45.13,74.46-67.7c4.79-4.35,5.69-4.3,10.55,0.13
	c12.9,11.76,25.82,23.5,38.74,35.25C66.43-583.2,79.06-571.71,91.68-560.22z M-27.28-403.91c4.56,0,8.8,0.3,12.96-0.12
	c2.42-0.24,5.21-1.07,7.02-2.6c15.35-12.94,30.47-26.15,45.74-39.17c7.54-6.43,12.55-14.37,15.14-23.91
	c1.56-5.76,3.22-11.49,4.87-17.22c0.8-2.76,2.48-4.54,5.54-4.7c3.03-0.16,4.95,1.32,6.09,3.99c5.44,12.78,7.48,26.13,5.5,39.83
	c-1.15,7.96-3.46,15.76-5.31,23.62c-1.64,6.96,1.59,12.11,8.33,12.49c5.72,0.32,11.47,0.21,17.21,0.02c3.8-0.12,6.42-2.9,6.27-6.09
	c-0.16-3.29-2.79-5.52-6.71-5.57c-4.23-0.05-8.46-0.01-12.78-0.01c0-0.59-0.06-0.95,0.01-1.28c0.42-1.82,0.81-3.64,1.33-5.43
	c5.98-20.66,5.51-41.03-2.65-61.07c-3.38-8.3-9.91-12.73-18.12-12.29c-7.63,0.41-13.84,5.87-16.22,14.28
	c-1.52,5.38-3.09,10.75-4.54,16.15c-1.96,7.32-5.74,13.4-11.55,18.33c-11.97,10.17-24.3,19.99-35.58,30.89
	c-7.02,6.78-14.45,9.52-23.72,8.1c-1.5-0.23-3.28-1.02-4.23-2.14c-4.6-5.45-10.09-9.76-17.27-10.07
	c-13.81-0.59-27.65-0.56-41.48-0.48c-3.9,0.02-6.35,4.01-5.16,7.48c1.08,3.15,3.56,4.22,6.75,4.21c11.35-0.04,22.7-0.02,34.05-0.01
	c10.74,0.01,16.68,5.86,16.69,16.54c0.02,21.2,0,42.41,0.01,63.61c0,1.24-0.07,2.52,0.15,3.73c0.55,3.04,3.28,5.39,6.03,5.06
	c3.22-0.39,5.17-2.31,5.56-5.59c0.15-1.23,0.05-2.49,0.05-3.74C-27.28-359.15-27.28-381.22-27.28-403.91z M156.8-523.5
	c10.21,11.71,20.13,23.08,30.65,35.14c-3.56,0-6.14-0.12-8.72,0.02c-5.8,0.33-9.86,3.83-9.99,9.57c-0.3,13.58-0.23,27.17-0.1,40.76
	c0.04,3.73,2.62,5.81,6.03,5.67c3.35-0.14,5.41-2.42,5.43-6.26c0.05-9.35,0.02-18.7,0.02-28.05c0-3.2,0-6.41,0-9.93
	c3.74,0,7.08,0.02,10.42-0.01c4.38-0.04,7.73-1.94,9.6-5.92c1.89-4.02,1.09-7.81-1.78-11.11c-11.21-12.88-22.41-25.78-33.73-38.56
	c-4.69-5.29-11.26-5.15-15.89,0.14c-11.09,12.66-22.09,25.39-33.2,38.03c-3.01,3.43-3.94,7.19-2.13,11.38
	c1.83,4.25,5.36,6.02,9.87,6.04c3.21,0.01,6.42,0,10.01,0c0,1.88,0,3.34,0,4.81c0,10.85-0.05,21.69,0.03,32.54
	c0.03,4.6,2.27,7,6.04,6.9c3.61-0.09,5.56-2.47,5.57-6.9c0.02-12.72,0.03-25.43,0-38.15c-0.02-6.79-4.06-10.82-10.95-10.99
	c-2.32-0.06-4.64-0.01-7.85-0.01C136.67-500.44,146.6-511.82,156.8-523.5z M-24.28-477.7c0-6.1,0.02-12.21-0.01-18.31
	c-0.02-4.75-2.25-7.47-5.99-7.4c-3.58,0.07-5.78,2.73-5.8,7.25c-0.04,12.21-0.04,24.42,0,36.63c0.01,4.56,2.17,7.11,5.83,7.15
	c3.8,0.04,5.93-2.57,5.95-7.38C-24.26-465.73-24.28-471.72-24.28-477.7z"/>
<g>
	<path class="st0" d="M731.73,383.43c-4.59-0.98-9.34-1.49-13.72-3.04c-8.06-2.84-15.87-6.35-23.84-9.46
		c-2.24-0.87-4.63-1.47-7.01-1.88c-1.7-0.29-3.5,0.09-5.23-0.08c-5.77-0.59-10.44,0.3-14.57,5.44c-4.36,5.43-11.22,7.24-18.19,7.32
		c-11.72,0.13-23.45,0.08-35.17,0.03c-4.73-0.02-7.4-2.39-7.26-6.17c0.14-3.62,2.68-5.58,7.35-5.59
		c11.47-0.02,22.95,0.02,34.42-0.02c9.68-0.03,15.87-6.2,15.94-15.85c0.04-5.61-0.03-11.23,0.03-16.84c0.05-4.55,2.24-7.04,5.97-7
		c3.71,0.04,5.77,2.54,5.81,7.13c0.05,6.36,0.06,12.72,0.1,19.08c0,0.1,0.11,0.2,0.44,0.75c4.54,0,9.37-0.14,14.18,0.07
		c1.9,0.08,4.02,0.53,5.6,1.52c15.05,9.37,31.46,13.19,49.08,13.05c27.44-0.21,54.88-0.03,82.32-0.1c2.45-0.01,5.04-0.16,7.34-0.94
		c5.73-1.94,8.9-7.52,8.15-13.57c-0.76-6.11-5.38-10.6-11.63-11.28c-4.61-0.5-6.8-2.35-6.84-5.78c-0.04-3.5,2.2-5.52,6.69-6.05
		c7.18-0.85,12.01-6.06,11.94-12.89c-0.06-6.85-5.07-12.11-12.14-12.75c-4.1-0.37-6.42-2.45-6.48-5.8c-0.06-3.39,2.24-5.6,6.27-6.04
		c7.48-0.8,12.4-5.94,12.35-12.9c-0.04-6.96-4.84-11.87-12.49-12.76c-3.97-0.46-6.27-2.78-6.14-6.17c0.12-3.21,2.41-5.29,6.24-5.65
		c7.52-0.71,12.63-6.19,12.37-13.28c-0.26-7.17-5.64-12.25-13.18-12.41c-1.99-0.04-4,0.1-5.98-0.08c-3.94-0.35-6.11-2.74-5.92-6.28
		c0.18-3.3,2.51-5.48,6.34-5.35c4.45,0.16,9.12-0.04,13.29,1.23c17.21,5.22,22.76,26.61,10.63,39.92c-0.58,0.64-1.18,1.26-1.96,2.08
		c5.2,5.26,8.48,11.28,8.44,18.87c-0.04,7.45-3.12,13.42-8.46,18.67c5.31,5.28,8.5,11.34,8.46,18.92
		c-0.04,7.46-3.18,13.41-8.45,18.61c5.13,5.13,8.38,10.93,8.41,18.23c0.04,11.26-6.49,20.48-17.18,24.08
		c-0.79,0.26-1.53,0.65-2.29,0.98C801.1,383.43,766.41,383.43,731.73,383.43z"/>
	<path class="st0" d="M795.24,84.88c-12.63-11.49-25.25-22.99-37.88-34.48c-12.91-11.75-25.84-23.49-38.74-35.25
		c-4.86-4.43-5.76-4.48-10.55-0.13c-24.82,22.56-49.64,45.13-74.46,67.7c-0.81,0.74-1.67,1.42-3.33,2.82
		c2.32,0.12,3.6,0.23,4.89,0.23c11.97,0.01,23.95-0.01,35.92,0.02c6.34,0.01,8.17,1.9,8.18,8.32c0.01,9.1,0.02,18.21-0.01,27.31
		c-0.01,4.71-2.32,7.51-6.01,7.43c-3.53-0.08-5.76-2.82-5.78-7.31c-0.04-7.85-0.01-15.69-0.01-24.08c-1.52,0-2.84,0-4.15,0
		c-12.22,0-24.44,0.01-36.67-0.01c-5.4-0.01-8.7-2.05-10.35-6.33c-1.6-4.14-0.63-7.8,3.28-11.37c27.65-25.2,55.31-50.39,83.03-75.52
		c6.61-5.99,15.14-5.59,22.25,0.82c10.92,9.86,21.79,19.78,32.67,29.68c16.33,14.85,32.64,29.73,48.98,44.56
		c2.93,2.66,4.94,5.69,4.25,9.8c-0.88,5.19-4.79,8.32-10.33,8.34c-12.35,0.04-24.69,0.01-37.04,0.01c-1.35,0-2.7,0-4.56,0
		c0,2.86,0.01,5.43,0,8.01c-0.02,6.61,0.07,13.22-0.1,19.83c-0.08,3.37-2.71,5.72-5.77,5.64c-2.95-0.07-5.49-2.33-5.52-5.5
		c-0.12-11.35-0.14-22.7,0-34.04c0.05-3.84,2.52-5.59,7.31-5.6c12.1-0.04,24.2-0.01,36.29-0.01c1.32,0,2.64,0,3.97,0
		C795.08,85.49,795.16,85.19,795.24,84.88z"/>
	<path class="st0" d="M676.28,241.19c0,22.69,0,44.76,0,66.84c0,1.25,0.09,2.51-0.05,3.74c-0.39,3.28-2.34,5.2-5.56,5.59
		c-2.75,0.34-5.48-2.02-6.03-5.06c-0.22-1.21-0.15-2.48-0.15-3.73c-0.01-21.2,0.01-42.41-0.01-63.61
		c-0.01-10.67-5.95-16.53-16.69-16.54c-11.35-0.01-22.7-0.03-34.05,0.01c-3.19,0.01-5.67-1.06-6.75-4.21
		c-1.2-3.47,1.25-7.46,5.16-7.48c13.83-0.08,27.67-0.11,41.48,0.48c7.18,0.31,12.67,4.62,17.27,10.07c0.95,1.12,2.72,1.91,4.23,2.14
		c9.27,1.42,16.7-1.32,23.72-8.1c11.28-10.9,23.61-20.72,35.58-30.89c5.81-4.93,9.59-11.02,11.55-18.33
		c1.45-5.4,3.02-10.77,4.54-16.15c2.38-8.4,8.59-13.87,16.22-14.28c8.21-0.44,14.74,3.99,18.12,12.29
		c8.17,20.04,8.64,40.41,2.65,61.07c-0.52,1.79-0.91,3.62-1.33,5.43c-0.08,0.33-0.01,0.69-0.01,1.28c4.32,0,8.55-0.04,12.78,0.01
		c3.91,0.04,6.55,2.27,6.71,5.57c0.15,3.19-2.46,5.97-6.27,6.09c-5.73,0.18-11.49,0.3-17.21-0.02c-6.74-0.38-9.97-5.53-8.33-12.49
		c1.85-7.86,4.16-15.66,5.31-23.62c1.98-13.7-0.07-27.05-5.5-39.83c-1.14-2.67-3.06-4.15-6.09-3.99c-3.06,0.17-4.74,1.94-5.54,4.7
		c-1.66,5.73-3.31,11.46-4.87,17.22c-2.59,9.54-7.6,17.47-15.14,23.91c-15.27,13.03-30.4,26.23-45.74,39.17
		c-1.81,1.53-4.59,2.36-7.02,2.6C685.08,241.49,680.84,241.19,676.28,241.19z"/>
	<path class="st0" d="M860.36,121.61c-10.2,11.68-20.13,23.06-30.67,35.13c3.22,0,5.54-0.05,7.85,0.01
		c6.88,0.17,10.93,4.2,10.95,10.99c0.03,12.72,0.02,25.43,0,38.15c-0.01,4.43-1.97,6.81-5.57,6.9c-3.77,0.1-6.01-2.3-6.04-6.9
		c-0.08-10.85-0.03-21.69-0.03-32.54c0-1.47,0-2.93,0-4.81c-3.6,0-6.8,0.01-10.01,0c-4.5-0.02-8.04-1.78-9.87-6.04
		c-1.81-4.19-0.88-7.94,2.13-11.38c11.1-12.65,22.11-25.38,33.2-38.03c4.63-5.29,11.21-5.44,15.89-0.14
		c11.33,12.78,22.52,25.68,33.73,38.56c2.87,3.3,3.67,7.08,1.78,11.11c-1.87,3.99-5.22,5.88-9.6,5.92
		c-3.34,0.03-6.68,0.01-10.42,0.01c0,3.52,0,6.73,0,9.93c0,9.35,0.03,18.7-0.02,28.05c-0.02,3.84-2.08,6.12-5.43,6.26
		c-3.42,0.14-6-1.94-6.03-5.67c-0.13-13.59-0.2-27.18,0.1-40.76c0.13-5.74,4.19-9.25,9.99-9.57c2.57-0.14,5.16-0.02,8.72-0.02
		C880.49,144.69,870.57,133.32,860.36,121.61z"/>
	<path class="st0" d="M679.28,167.41c0,5.98,0.02,11.96-0.01,17.94c-0.02,4.81-2.15,7.42-5.95,7.38c-3.66-0.04-5.82-2.59-5.83-7.15
		c-0.04-12.21-0.04-24.42,0-36.63c0.01-4.52,2.22-7.19,5.8-7.25c3.74-0.07,5.97,2.65,5.99,7.4
		C679.3,155.2,679.28,161.3,679.28,167.41z"/>
</g>
<g>
	<path class="st0" d="M-657.45,844.15c-55.89,0-111.78,0-167.67,0c0-128,0-256,0-384c128,0,256,0,384,0c0,128,0,256,0,384
		c-37.43,0-74.85,0-112.28,0c0.76-0.33,1.51-0.72,2.29-0.98c10.69-3.6,17.23-12.82,17.18-24.08c-0.03-7.3-3.29-13.1-8.41-18.23
		c5.27-5.2,8.41-11.16,8.45-18.61c0.04-7.58-3.15-13.64-8.46-18.92c5.34-5.25,8.42-11.22,8.46-18.67c0.04-7.6-3.24-13.61-8.44-18.87
		c0.78-0.82,1.38-1.44,1.96-2.08c12.13-13.31,6.58-34.7-10.63-39.92c-4.17-1.27-8.84-1.07-13.29-1.23
		c-3.83-0.13-6.17,2.05-6.34,5.35c-0.19,3.54,1.98,5.92,5.92,6.28c1.98,0.18,3.99,0.03,5.98,0.08c7.54,0.17,12.92,5.25,13.18,12.41
		c0.26,7.09-4.85,12.57-12.37,13.28c-3.83,0.36-6.12,2.43-6.24,5.65c-0.13,3.39,2.17,5.71,6.14,6.17
		c7.64,0.89,12.44,5.8,12.49,12.76c0.04,6.96-4.88,12.09-12.35,12.9c-4.03,0.43-6.33,2.65-6.27,6.04c0.06,3.35,2.38,5.43,6.48,5.8
		c7.08,0.64,12.08,5.9,12.14,12.75c0.06,6.83-4.76,12.05-11.94,12.89c-4.49,0.53-6.73,2.55-6.69,6.05c0.03,3.43,2.22,5.28,6.84,5.78
		c6.25,0.68,10.88,5.17,11.63,11.28c0.75,6.05-2.42,11.63-8.15,13.57c-2.29,0.78-4.88,0.93-7.34,0.94
		c-27.44,0.06-54.88-0.11-82.32,0.1c-17.62,0.13-34.03-3.69-49.08-13.05c-1.58-0.98-3.7-1.43-5.6-1.52
		c-4.81-0.21-9.64-0.07-14.18-0.07c-0.33-0.55-0.44-0.65-0.44-0.75c-0.04-6.36-0.05-12.72-0.1-19.08c-0.04-4.59-2.1-7.09-5.81-7.13
		c-3.74-0.04-5.93,2.45-5.97,7c-0.06,5.61,0.02,11.23-0.03,16.84c-0.07,9.65-6.27,15.82-15.94,15.85c-11.47,0.04-22.95,0-34.42,0.02
		c-4.67,0.01-7.21,1.97-7.35,5.59c-0.15,3.78,2.53,6.15,7.26,6.17c11.72,0.05,23.45,0.1,35.17-0.03c6.96-0.08,13.82-1.89,18.19-7.32
		c4.13-5.13,8.8-6.02,14.57-5.44c1.73,0.18,3.53-0.21,5.23,0.08c2.38,0.41,4.77,1,7.01,1.88c7.97,3.1,15.78,6.61,23.84,9.46
		C-666.79,842.66-662.04,843.17-657.45,844.15z M-593.94,545.61c-0.08,0.3-0.16,0.6-0.25,0.9c-1.32,0-2.64,0-3.97,0
		c-12.1,0-24.2-0.03-36.29,0.01c-4.78,0.02-7.26,1.76-7.31,5.6c-0.14,11.35-0.12,22.7,0,34.04c0.03,3.17,2.57,5.43,5.52,5.5
		c3.06,0.08,5.69-2.27,5.77-5.64c0.16-6.61,0.08-13.22,0.1-19.83c0.01-2.58,0-5.15,0-8.01c1.85,0,3.2,0,4.56,0
		c12.35,0,24.69,0.03,37.04-0.01c5.54-0.02,9.46-3.15,10.33-8.34c0.69-4.11-1.32-7.14-4.25-9.8
		c-16.34-14.83-32.65-29.71-48.98-44.56c-10.88-9.9-21.75-19.82-32.67-29.68c-7.1-6.41-15.64-6.81-22.25-0.82
		c-27.72,25.12-55.38,50.32-83.03,75.52c-3.91,3.57-4.88,7.24-3.28,11.37c1.66,4.28,4.95,6.32,10.35,6.33
		c12.22,0.02,24.44,0.01,36.67,0.01c1.32,0,2.63,0,4.15,0c0,8.38-0.03,16.23,0.01,24.08c0.02,4.49,2.25,7.23,5.78,7.31
		c3.69,0.08,5.99-2.72,6.01-7.43c0.03-9.1,0.01-18.21,0.01-27.31c-0.01-6.43-1.83-8.31-8.18-8.32c-11.97-0.02-23.95,0-35.92-0.02
		c-1.28,0-2.57-0.12-4.89-0.23c1.66-1.4,2.51-2.08,3.33-2.82c24.82-22.56,49.64-45.13,74.46-67.7c4.79-4.35,5.69-4.3,10.55,0.13
		c12.9,11.76,25.82,23.5,38.74,35.25C-619.19,522.63-606.57,534.12-593.94,545.61z M-712.9,701.92c4.56,0,8.8,0.3,12.96-0.12
		c2.42-0.24,5.21-1.07,7.02-2.6c15.35-12.94,30.47-26.15,45.74-39.17c7.54-6.43,12.55-14.37,15.14-23.91
		c1.56-5.76,3.22-11.49,4.87-17.22c0.8-2.76,2.48-4.54,5.54-4.7c3.03-0.16,4.95,1.32,6.09,3.99c5.44,12.78,7.48,26.13,5.5,39.83
		c-1.15,7.96-3.46,15.76-5.31,23.62c-1.64,6.96,1.59,12.11,8.33,12.49c5.72,0.32,11.47,0.21,17.21,0.02c3.8-0.12,6.42-2.9,6.27-6.09
		c-0.16-3.29-2.79-5.52-6.71-5.57c-4.23-0.05-8.46-0.01-12.78-0.01c0-0.59-0.06-0.95,0.01-1.28c0.42-1.82,0.81-3.64,1.33-5.43
		c5.98-20.66,5.51-41.03-2.65-61.07c-3.38-8.3-9.91-12.73-18.12-12.29c-7.63,0.41-13.84,5.87-16.22,14.28
		c-1.52,5.38-3.09,10.75-4.54,16.15c-1.96,7.32-5.74,13.4-11.55,18.33c-11.97,10.17-24.3,19.99-35.58,30.89
		c-7.02,6.78-14.45,9.52-23.72,8.1c-1.5-0.23-3.28-1.02-4.23-2.14c-4.6-5.45-10.09-9.76-17.27-10.07
		c-13.81-0.59-27.65-0.56-41.48-0.48c-3.9,0.02-6.35,4.01-5.16,7.48c1.08,3.15,3.56,4.22,6.75,4.21c11.35-0.04,22.7-0.02,34.05-0.01
		c10.74,0.01,16.68,5.86,16.69,16.54c0.02,21.2,0,42.41,0.01,63.61c0,1.24-0.07,2.52,0.15,3.73c0.55,3.04,3.28,5.39,6.03,5.06
		c3.22-0.39,5.17-2.31,5.56-5.59c0.15-1.23,0.05-2.49,0.05-3.74C-712.9,746.68-712.9,724.61-712.9,701.92z M-528.83,582.33
		c10.21,11.71,20.13,23.08,30.65,35.14c-3.56,0-6.14-0.12-8.72,0.02c-5.8,0.33-9.86,3.83-9.99,9.57c-0.3,13.58-0.23,27.17-0.1,40.76
		c0.04,3.73,2.62,5.81,6.03,5.67c3.35-0.14,5.41-2.42,5.43-6.26c0.05-9.35,0.02-18.7,0.02-28.05c0-3.2,0-6.41,0-9.93
		c3.74,0,7.08,0.02,10.42-0.01c4.38-0.04,7.73-1.94,9.6-5.92c1.89-4.02,1.09-7.81-1.78-11.11c-11.21-12.88-22.41-25.78-33.73-38.56
		c-4.69-5.29-11.26-5.15-15.89,0.14c-11.09,12.66-22.09,25.39-33.2,38.03c-3.01,3.43-3.94,7.19-2.13,11.38
		c1.83,4.25,5.36,6.02,9.87,6.03c3.21,0.01,6.42,0,10.01,0c0,1.88,0,3.34,0,4.81c0,10.85-0.05,21.69,0.03,32.54
		c0.03,4.6,2.27,7,6.04,6.9c3.61-0.09,5.56-2.47,5.57-6.9c0.02-12.72,0.03-25.43,0-38.15c-0.02-6.79-4.06-10.83-10.95-10.99
		c-2.32-0.06-4.64-0.01-7.85-0.01C-548.96,605.39-539.02,594.02-528.83,582.33z M-709.91,628.14c0-6.1,0.02-12.21-0.01-18.31
		c-0.02-4.75-2.25-7.47-5.99-7.4c-3.58,0.07-5.78,2.73-5.8,7.25c-0.04,12.21-0.04,24.42,0,36.63c0.01,4.56,2.17,7.11,5.83,7.15
		c3.8,0.04,5.93-2.57,5.95-7.38C-709.89,640.1-709.91,634.12-709.91,628.14z"/>
	<path d="M-657.45,844.15c-4.59-0.98-9.34-1.49-13.72-3.04c-8.06-2.84-15.87-6.35-23.84-9.46c-2.24-0.87-4.63-1.47-7.01-1.88
		c-1.7-0.29-3.5,0.09-5.23-0.08c-5.77-0.59-10.44,0.3-14.57,5.44c-4.36,5.43-11.22,7.24-18.19,7.32
		c-11.72,0.13-23.45,0.08-35.17,0.03c-4.73-0.02-7.4-2.39-7.26-6.17c0.14-3.62,2.68-5.58,7.35-5.59
		c11.47-0.02,22.95,0.02,34.42-0.02c9.68-0.03,15.87-6.2,15.94-15.85c0.04-5.61-0.03-11.23,0.03-16.84c0.05-4.55,2.24-7.04,5.97-7
		c3.71,0.04,5.77,2.54,5.81,7.13c0.05,6.36,0.06,12.72,0.1,19.08c0,0.1,0.11,0.2,0.44,0.75c4.54,0,9.37-0.14,14.18,0.07
		c1.9,0.08,4.02,0.53,5.6,1.52c15.05,9.37,31.46,13.19,49.08,13.05c27.44-0.21,54.88-0.03,82.32-0.1c2.45-0.01,5.04-0.16,7.34-0.94
		c5.73-1.94,8.9-7.52,8.15-13.57c-0.76-6.11-5.38-10.6-11.63-11.28c-4.61-0.5-6.8-2.35-6.84-5.78c-0.04-3.5,2.2-5.52,6.69-6.05
		c7.18-0.85,12.01-6.06,11.94-12.89c-0.06-6.85-5.07-12.11-12.14-12.75c-4.1-0.37-6.42-2.45-6.48-5.8c-0.06-3.39,2.24-5.6,6.27-6.04
		c7.48-0.8,12.4-5.94,12.35-12.9c-0.04-6.96-4.84-11.87-12.49-12.76c-3.97-0.46-6.27-2.78-6.14-6.17c0.12-3.21,2.41-5.29,6.24-5.65
		c7.52-0.71,12.63-6.19,12.37-13.28c-0.26-7.17-5.64-12.25-13.18-12.41c-1.99-0.04-4,0.1-5.98-0.08c-3.94-0.35-6.11-2.74-5.92-6.28
		c0.18-3.3,2.51-5.48,6.34-5.35c4.45,0.16,9.12-0.04,13.29,1.23c17.21,5.22,22.76,26.61,10.63,39.92c-0.58,0.64-1.18,1.26-1.96,2.08
		c5.2,5.26,8.48,11.28,8.44,18.87c-0.04,7.45-3.12,13.42-8.46,18.67c5.31,5.28,8.5,11.34,8.46,18.92
		c-0.04,7.46-3.18,13.41-8.45,18.61c5.13,5.13,8.38,10.93,8.41,18.23c0.04,11.26-6.49,20.48-17.18,24.08
		c-0.79,0.26-1.53,0.65-2.29,0.98C-588.09,844.15-622.77,844.15-657.45,844.15z"/>
	<path d="M-593.94,545.61c-12.63-11.49-25.25-22.99-37.88-34.48c-12.91-11.75-25.84-23.49-38.74-35.25
		c-4.86-4.43-5.76-4.48-10.55-0.13c-24.82,22.56-49.64,45.13-74.46,67.7c-0.81,0.74-1.67,1.42-3.33,2.82
		c2.32,0.11,3.6,0.23,4.89,0.23c11.97,0.01,23.95-0.01,35.92,0.02c6.34,0.01,8.17,1.9,8.18,8.32c0.01,9.1,0.02,18.21-0.01,27.31
		c-0.01,4.71-2.32,7.51-6.01,7.43c-3.53-0.08-5.76-2.82-5.78-7.31c-0.04-7.85-0.01-15.69-0.01-24.08c-1.52,0-2.84,0-4.15,0
		c-12.22,0-24.44,0.01-36.67-0.01c-5.4-0.01-8.7-2.05-10.35-6.33c-1.6-4.14-0.63-7.8,3.28-11.37c27.65-25.2,55.31-50.39,83.03-75.52
		c6.61-5.99,15.14-5.59,22.25,0.82c10.92,9.86,21.79,19.78,32.67,29.68c16.33,14.85,32.64,29.73,48.98,44.56
		c2.93,2.66,4.94,5.69,4.25,9.8c-0.88,5.19-4.79,8.32-10.33,8.34c-12.35,0.04-24.69,0.01-37.04,0.01c-1.35,0-2.7,0-4.56,0
		c0,2.86,0.01,5.43,0,8.01c-0.02,6.61,0.07,13.22-0.1,19.83c-0.08,3.37-2.71,5.72-5.77,5.64c-2.95-0.07-5.49-2.33-5.52-5.5
		c-0.12-11.35-0.14-22.7,0-34.04c0.05-3.84,2.52-5.59,7.31-5.6c12.1-0.04,24.2-0.01,36.29-0.01c1.32,0,2.64,0,3.97,0
		C-594.11,546.21-594.02,545.91-593.94,545.61z"/>
	<path d="M-712.9,701.92c0,22.69,0,44.76,0,66.84c0,1.25,0.09,2.51-0.05,3.74c-0.39,3.28-2.34,5.2-5.56,5.59
		c-2.75,0.34-5.48-2.02-6.03-5.06c-0.22-1.21-0.15-2.48-0.15-3.73c-0.01-21.2,0.01-42.41-0.01-63.61
		c-0.01-10.67-5.95-16.53-16.69-16.54c-11.35-0.01-22.7-0.03-34.05,0.01c-3.19,0.01-5.67-1.06-6.75-4.21
		c-1.2-3.47,1.25-7.46,5.16-7.48c13.83-0.08,27.67-0.11,41.48,0.48c7.18,0.31,12.67,4.62,17.27,10.07c0.95,1.12,2.72,1.91,4.23,2.14
		c9.27,1.42,16.7-1.32,23.72-8.1c11.28-10.9,23.61-20.72,35.58-30.89c5.81-4.93,9.59-11.02,11.55-18.33
		c1.45-5.4,3.02-10.77,4.54-16.15c2.38-8.4,8.59-13.87,16.22-14.28c8.21-0.44,14.74,3.99,18.12,12.29
		c8.17,20.04,8.64,40.41,2.65,61.07c-0.52,1.79-0.91,3.62-1.33,5.43c-0.08,0.33-0.01,0.69-0.01,1.28c4.32,0,8.55-0.04,12.78,0.01
		c3.91,0.04,6.55,2.27,6.71,5.57c0.15,3.19-2.46,5.97-6.27,6.09c-5.73,0.18-11.49,0.3-17.21-0.02c-6.74-0.38-9.97-5.53-8.33-12.49
		c1.85-7.86,4.16-15.66,5.31-23.62c1.98-13.7-0.07-27.05-5.5-39.83c-1.14-2.67-3.06-4.15-6.09-3.99c-3.06,0.17-4.74,1.94-5.54,4.7
		c-1.66,5.73-3.31,11.46-4.87,17.22c-2.59,9.54-7.6,17.47-15.14,23.91c-15.27,13.03-30.4,26.23-45.74,39.17
		c-1.81,1.53-4.59,2.36-7.02,2.6C-704.1,702.22-708.35,701.92-712.9,701.92z"/>
	<path d="M-528.83,582.33c-10.2,11.68-20.13,23.06-30.67,35.13c3.22,0,5.54-0.05,7.85,0.01c6.88,0.17,10.93,4.2,10.95,10.99
		c0.03,12.72,0.02,25.43,0,38.15c-0.01,4.43-1.97,6.81-5.57,6.9c-3.77,0.1-6.01-2.3-6.04-6.9c-0.08-10.85-0.03-21.69-0.03-32.54
		c0-1.47,0-2.93,0-4.81c-3.6,0-6.8,0.01-10.01,0c-4.5-0.02-8.04-1.78-9.87-6.03c-1.81-4.19-0.88-7.94,2.13-11.38
		c11.1-12.65,22.11-25.38,33.2-38.03c4.63-5.29,11.21-5.44,15.89-0.14c11.33,12.78,22.52,25.68,33.73,38.56
		c2.87,3.3,3.67,7.08,1.78,11.11c-1.87,3.99-5.22,5.88-9.6,5.92c-3.34,0.03-6.68,0.01-10.42,0.01c0,3.52,0,6.73,0,9.93
		c0,9.35,0.03,18.7-0.02,28.05c-0.02,3.84-2.08,6.12-5.43,6.26c-3.42,0.14-6-1.94-6.03-5.67c-0.13-13.59-0.2-27.18,0.1-40.76
		c0.13-5.74,4.19-9.25,9.99-9.57c2.57-0.14,5.16-0.02,8.72-0.02C-508.7,605.42-518.62,594.04-528.83,582.33z"/>
	<path d="M-709.91,628.14c0,5.98,0.02,11.96-0.01,17.94c-0.02,4.81-2.15,7.42-5.95,7.38c-3.66-0.04-5.82-2.59-5.83-7.15
		c-0.04-12.21-0.04-24.42,0-36.63c0.01-4.52,2.22-7.19,5.8-7.25c3.74-0.07,5.97,2.65,5.99,7.4
		C-709.88,615.93-709.91,622.03-709.91,628.14z"/>
</g>
<g>
	<path class="st0" d="M25.03,356.39c-6.79-1.85-13.03-4.64-17.73-10.17c-4.67-5.5-7.28-11.81-7.28-19.04
		C-0.01,271.11,0,215.04,0.01,158.96c0-6.76,4.47-11.21,11.24-11.27c6.31-0.06,12.63-0.05,18.94-0.08c0.1,0,0.19-0.09,0.51-0.25
		c0.18-1.19,0.31-2.54,0.6-3.85c1.09-4.89,4.83-7.96,9.84-7.97c12.63-0.04,25.26-0.03,37.89,0c3.38,0.01,5.62,2,5.61,4.84
		c-0.01,2.83-2.22,4.79-5.65,4.8c-11.34,0.04-22.69,0.02-34.03,0.02c-1.16,0-2.33,0-3.76,0c0,49.66,0,99.12,0,148.96
		c1.48,0,2.95,0,4.41,0c9.53,0,19.05,0,28.58,0c4.57,0,6.89,1.6,6.96,4.79c0.07,3.37-2.16,4.95-7.06,4.95
		c-9.74,0.01-19.48,0-29.22,0c-1.16,0-2.31,0-3.85,0c0,6.45-0.07,12.62,0.09,18.77c0.02,0.74,1.19,1.62,2.02,2.12
		c0.56,0.34,1.46,0.15,2.21,0.15c32,0,64,0,96,0c0.74,0,1.48-0.06,2.22-0.1c-0.52-9.53-10.37-19.51-20.81-20.41
		c-7.55-0.65-15.17-0.39-22.76-0.54c-1.18-0.02-2.36,0.01-3.53-0.08c-2.81-0.23-4.29-2.01-4.44-4.61c-0.14-2.51,1.41-4.86,3.79-4.82
		c11.79,0.18,23.85-2.25,35.28,2.16c4.67,1.8,8.84,4.9,13.4,7.5c0-0.66,0-1.78,0-2.9c0-19.15,0.02-38.31-0.02-57.46
		c-0.01-2.69,0.92-4.66,3.56-5.36c2.43-0.64,4.55,0.17,5.59,2.55c0.49,1.11,0.48,2.49,0.48,3.75c0.03,18.73,0.02,37.45,0.02,56.18
		c0,1.17,0,2.35,0,4.03c0.93-0.72,1.57-1.16,2.15-1.66c6.81-5.9,14.68-9.01,23.72-9.02c24.51-0.02,49.02-0.01,73.53-0.01
		c1.26,0,2.52,0,4.15,0c0-1.55,0-2.8,0-4.04c0-20.87,0-41.73,0.01-62.6c0-1.27,0.03-2.58,0.31-3.81c0.54-2.39,2.25-3.66,4.62-3.68
		c2.37-0.02,4.1,1.22,4.69,3.6c0.28,1.12,0.33,2.32,0.33,3.49c0.02,31.14-0.08,62.28,0.07,93.42c0.04,8.87-6.23,14.19-14.12,14.17
		c-69.46-0.2-138.92-0.21-208.38,0c-8.52,0.03-14.33-5.74-14.31-14.3c0.13-52.86,0.07-105.72,0.07-158.59c0-1.37,0-2.73,0-4.43
		c-6.69,0-13.08-0.05-19.46,0.08c-0.6,0.01-1.37,1.05-1.71,1.77c-0.29,0.62-0.08,1.47-0.08,2.22c0,54.47-0.01,108.93,0,163.4
		c0,10.5,5.16,18.19,14.18,20.87c2.32,0.69,4.83,1.03,7.25,1.03c78.56,0.05,157.11,0.06,235.67,0.03c12.85,0,21.42-8.49,21.43-21.27
		c0.04-54.9,0-109.79,0.06-164.69c0-2.59-0.68-3.61-3.43-3.51c-5.63,0.19-11.28,0.06-17.23,0.06c0,1.5,0,2.65,0,3.8
		c0,13.48,0,26.97,0,40.45c0,0.96,0.07,1.94-0.08,2.88c-0.42,2.77-2.04,4.62-4.85,4.66c-2.82,0.04-4.5-1.76-4.95-4.53
		c-0.17-1.05-0.1-2.13-0.1-3.2c0-17.34,0-34.67,0-52.01c0-1.26,0-2.53,0-4.2c-1.43,0-2.57,0-3.71,0c-11.56,0-23.12,0.11-34.67-0.14
		c-1.64-0.04-3.74-1.51-4.68-2.94c-0.68-1.03-0.25-3.43,0.57-4.61c0.74-1.08,2.66-1.87,4.07-1.89c12.84-0.14,25.69-0.11,38.53-0.06
		c4.5,0.02,8.24,3,9.36,7.34c0.37,1.44,0.5,2.94,0.8,4.8c5.77,0,11.64,0.3,17.47-0.07c8.42-0.53,12.68,5.96,12.65,12.64
		c-0.19,54.68-0.11,109.36-0.11,164.04c0,16.94-8.06,27.35-24.53,31.72c-0.19,0.05-0.34,0.25-0.5,0.37
		C190.29,356.39,107.66,356.39,25.03,356.39z M154.86,324.94c0.89,0,1.53,0,2.16,0c32.09,0,64.19,0,96.28,0
		c0.64,0,1.43,0.19,1.89-0.1c0.9-0.59,2.26-1.44,2.29-2.21c0.19-6.15,0.1-12.3,0.1-18.3c-0.62-0.23-0.81-0.36-1.01-0.36
		c-25.78-0.01-51.56-0.29-77.34,0.1C166.52,304.25,156.62,313.22,154.86,324.94z"/>
	<path class="st0" d="M134.35,189.21c-0.99-16.93-1.99-33.86-3-51.16c-2.02,0-3.8,0.03-5.59-0.01c-7.73-0.17-13.87-6.2-14.06-13.8
		c-0.21-8.46,5.2-14.71,13.38-15.46c7.26-0.67,13.97,5.05,15,12.83c0.28,2.11,0.46,4.22,0.72,6.7c1.21,0,2.36,0,3.51,0
		c4.25,0,8.51,0,12.82,0c0.28-2.58,0.47-4.8,0.77-7.01c0.98-7.37,7.5-12.95,14.63-12.55c7.98,0.45,13.79,6.73,13.74,14.83
		c-0.05,7.8-5.84,14.06-13.42,14.44c-1.91,0.1-3.84,0.01-6.23,0.01c-1.02,17.35-2.03,34.53-3.04,51.71c0.4,0.1,0.79,0.19,1.19,0.29
		c0.39-1.12,1.23-2.3,1.1-3.36c-0.64-5.07,1.59-8.99,4.24-13.03c9.73-14.83,19.21-29.83,28.83-44.73
		c23.35-36.17,1.9-84.22-40.63-90.93c-33.07-5.22-63.86,18.4-67.82,52.04c-0.41,3.52-2.65,5.64-5.57,5.3
		c-3.01-0.35-4.59-2.77-4.17-6.38c3.65-30.95,26.6-55.24,57.2-60.51c38.27-6.59,75.42,21.21,79.82,59.54
		c1.99,17.3-1.91,33.01-11.4,47.53c-9.88,15.12-19.6,30.34-29.27,45.6c-0.89,1.4-1.15,3.4-1.16,5.12
		c-0.03,4.94-1.68,8.91-5.82,11.84c-0.75,0.53-1.19,1.86-1.29,2.87c-0.3,2.97-0.07,6.01-0.57,8.93
		c-1.17,6.78-6.38,11.67-13.29,12.38c-3.59,0.37-7.28,0.43-10.87,0.07c-8.16-0.82-13.72-6.91-14.22-15.15
		c-0.06-1.07-0.11-2.15-0.01-3.21c0.31-3.1-0.15-5.53-3.15-7.57c-3.17-2.15-4.14-5.9-3.93-9.7c0.15-2.7-0.66-4.91-2.12-7.15
		c-9.91-15.23-20.02-30.33-29.4-45.88c-3.86-6.39-6.18-13.74-8.97-20.74c-0.94-2.35-0.4-5.01,2.16-5.99
		c1.52-0.58,3.71-0.24,5.27,0.43c0.99,0.43,1.69,2.15,2.02,3.42c1.82,7,4.83,13.4,8.77,19.46c10.25,15.77,20.45,31.58,30.43,47.52
		c1.3,2.08,1.22,5.03,1.71,7.6c0.25,1.35,0.34,2.72,0.5,4.08C133.54,189.36,133.95,189.29,134.35,189.21z M141.18,138.18
		c1.03,17.44,2.05,34.58,3.06,51.72c3.34,0,6.28,0,9.48,0c1.02-17.31,2.03-34.44,3.04-51.72
		C151.45,138.18,146.56,138.18,141.18,138.18z M140.17,199.89c-1.1,6.9-0.43,10.22,2.35,11.92c2.23,1.37,12.13,1.25,13.98-0.33
		c3.89-3.3,1.77-7.62,2.24-11.59C152.23,199.89,146.18,199.89,140.17,199.89z M130.65,128.42c-0.1-2.14-0.12-3.82-0.26-5.48
		c-0.23-2.58-1.63-4.09-4.28-4.21c-2.69-0.13-4.24,1.4-4.66,3.85c-0.41,2.41,0.45,4.58,3.01,5.25
		C126.33,128.33,128.37,128.23,130.65,128.42z M167.29,128.45c2.37-0.22,4.42-0.11,6.29-0.65c2.53-0.72,3.37-2.91,2.9-5.32
		c-0.47-2.44-2.06-3.92-4.74-3.75c-2.49,0.16-3.88,1.57-4.16,3.99C167.39,124.4,167.4,126.1,167.29,128.45z"/>
	<path class="st0" d="M89.9,261.46c8.55,0,17.1-0.04,25.66,0.02c3.66,0.02,5.82,1.99,5.78,5.01c-0.03,2.91-2.07,4.79-5.59,4.87
		c-4.59,0.1-9.19,0.03-13.79,0.03c-11.97,0-23.95,0-35.92,0c-0.86,0-1.71,0.04-2.56-0.02c-3.28-0.23-5.27-2.06-5.32-4.84
		c-0.06-2.86,2.1-4.99,5.45-5.04c5.88-0.09,11.76-0.03,17.64-0.03C84.12,261.46,87.01,261.46,89.9,261.46z"/>
	<path class="st0" d="M208.85,271.4c-8.12,0-16.25,0-24.37-0.01c-0.96,0-1.94,0.03-2.87-0.13c-2.62-0.47-4.28-1.97-4.32-4.74
		c-0.04-2.94,1.73-4.58,4.46-4.95c2.1-0.29,4.27-0.11,6.4-0.11c14.97-0.01,29.93,0,44.9,0c1.07,0,2.17-0.09,3.19,0.13
		c2.59,0.56,4.22,2.17,4.17,4.9c-0.05,2.71-1.62,4.39-4.31,4.74c-1.68,0.22-3.41,0.14-5.12,0.14
		C223.6,271.41,216.22,271.4,208.85,271.4z"/>
	<path class="st0" d="M89.56,224.34c-8.55,0-17.1,0.05-25.65-0.02c-4.01-0.04-6.24-2.33-5.66-5.61c0.48-2.69,2.25-4.14,4.92-4.14
		c17.74-0.05,35.48-0.06,53.23,0.01c2.94,0.01,4.9,2.13,4.94,4.82c0.04,2.81-1.91,4.85-5.17,4.89c-8.87,0.1-17.74,0.03-26.61,0.03
		C89.56,224.32,89.56,224.33,89.56,224.34z"/>
	<path class="st0" d="M208.69,214.53c8.55,0,17.1-0.02,25.65,0.01c3.86,0.01,6.16,1.94,6.1,5c-0.06,3-2.14,4.78-5.96,4.79
		c-17.1,0.04-34.2,0.04-51.3,0c-3.82-0.01-5.89-1.82-5.92-4.81c-0.03-3.15,2.15-4.96,6.1-4.97
		C191.8,214.51,200.24,214.53,208.69,214.53z"/>
	<path class="st0" d="M89.92,247.85c-8.55,0-17.1,0.01-25.65-0.01c-3.88-0.01-6.17-1.89-6.13-4.96c0.04-2.99,2.15-4.76,5.95-4.76
		c17.1-0.03,34.2-0.03,51.3,0c3.8,0.01,5.9,1.77,5.94,4.76c0.04,3.14-2.16,4.96-6.09,4.96C106.8,247.86,98.36,247.85,89.92,247.85z"
		/>
	<path class="st0" d="M208.96,247.85c-8.55,0-17.1,0.01-25.65-0.01c-3.96-0.01-6.12-1.82-6.06-4.99c0.05-2.99,2.15-4.72,5.97-4.73
		c17.1-0.03,34.2-0.03,51.3,0c3.81,0.01,5.9,1.78,5.93,4.79c0.03,3.06-2.27,4.93-6.15,4.94
		C225.85,247.86,217.41,247.85,208.96,247.85z"/>
	<path class="st0" d="M77.85,199.72c-7.58,0-15.16,0.01-22.74-0.01c-3.55-0.01-5.58-1.72-5.66-4.66c-0.08-3.05,2.06-4.95,5.71-4.95
		c15.27-0.02,30.53-0.02,45.8,0c3.58,0,5.56,1.7,5.63,4.68c0.07,3.14-1.95,4.92-5.68,4.93C93.23,199.74,85.54,199.72,77.85,199.72z"
		/>
	<path class="st0" d="M220.52,199.72c-7.58,0-15.16,0.01-22.74,0c-3.79-0.01-5.8-1.71-5.78-4.83c0.02-3.12,2.01-4.78,5.84-4.78
		c15.16-0.01,30.32-0.01,45.48,0c3.71,0,5.83,1.81,5.81,4.85c-0.02,3.04-2.11,4.76-5.88,4.76
		C235.68,199.73,228.1,199.72,220.52,199.72z"/>
	<path class="st0" d="M70.31,89.44c-1.01,1.68-1.52,3.17-2.53,4.12c-3.26,3.08-6.65,6.03-10.09,8.9c-2.47,2.06-5.26,1.83-7.11-0.37
		c-1.74-2.05-1.6-4.85,0.6-6.88c3.38-3.11,6.74-6.28,10.42-9c1.28-0.94,3.7-1.22,5.22-0.69C68.2,86.01,69.08,87.98,70.31,89.44z"/>
	<path class="st0" d="M249.61,99.29c-0.89,1.23-1.58,3.1-2.86,3.68c-1.41,0.65-3.88,0.81-4.98-0.02c-4.09-3.07-7.93-6.5-11.61-10.06
		c-1.91-1.85-1.79-4.34,0.02-6.37c1.68-1.89,4.01-2.52,6.03-0.91c4.09,3.26,7.96,6.79,11.81,10.32
		C248.73,96.58,248.93,97.79,249.61,99.29z"/>
	<path class="st0" d="M53.66,45.29c3.56,0.34,15.73,10.78,15.74,13.18c0.01,1.66-0.77,4-2.01,4.82c-1.25,0.84-4.04,0.92-5.21,0.05
		c-4.1-3.04-7.97-6.44-11.5-10.12c-0.99-1.03-1.13-3.74-0.5-5.18C50.8,46.63,52.89,45.85,53.66,45.29z"/>
	<path class="st0" d="M233.14,64.66c-1.11-0.92-3.01-1.76-3.56-3.14c-0.56-1.41-0.46-3.98,0.48-4.95c3.64-3.73,7.6-7.17,11.69-10.39
		c2.07-1.63,4.54-1.09,6.28,0.98c1.65,1.97,1.76,4.37-0.05,6.11c-3.76,3.61-7.79,6.95-11.78,10.32
		C235.62,64.09,234.65,64.15,233.14,64.66z"/>
</g>
<g>
	<path d="M570.22-185.24c-6.79-1.85-13.03-4.64-17.73-10.17c-4.67-5.5-7.28-11.81-7.28-19.04c-0.03-56.07-0.03-112.14-0.01-168.22
		c0-6.76,4.47-11.21,11.24-11.27c6.31-0.06,12.63-0.05,18.94-0.08c0.1,0,0.19-0.09,0.51-0.25c0.18-1.19,0.31-2.54,0.6-3.85
		c1.09-4.89,4.83-7.96,9.84-7.97c12.63-0.04,25.26-0.03,37.89,0c3.38,0.01,5.62,2,5.61,4.83c-0.01,2.83-2.22,4.79-5.65,4.8
		c-11.34,0.04-22.69,0.02-34.03,0.02c-1.16,0-2.33,0-3.76,0c0,49.66,0,99.12,0,148.96c1.48,0,2.95,0,4.41,0c9.53,0,19.05,0,28.58,0
		c4.57,0,6.89,1.6,6.96,4.79c0.07,3.37-2.16,4.95-7.06,4.95c-9.74,0.01-19.48,0-29.22,0c-1.16,0-2.31,0-3.85,0
		c0,6.45-0.07,12.62,0.09,18.77c0.02,0.74,1.19,1.62,2.02,2.12c0.56,0.34,1.46,0.15,2.21,0.15c32,0,64,0,96,0
		c0.74,0,1.48-0.06,2.22-0.1c-0.52-9.53-10.37-19.51-20.81-20.41c-7.55-0.65-15.17-0.39-22.76-0.54c-1.18-0.02-2.36,0.01-3.53-0.08
		c-2.81-0.23-4.29-2.01-4.44-4.61c-0.14-2.51,1.41-4.86,3.79-4.82c11.79,0.18,23.85-2.25,35.28,2.16c4.67,1.8,8.84,4.9,13.4,7.5
		c0-0.66,0-1.78,0-2.9c0-19.15,0.02-38.31-0.02-57.46c-0.01-2.69,0.92-4.66,3.56-5.36c2.43-0.64,4.55,0.17,5.59,2.55
		c0.49,1.11,0.48,2.49,0.48,3.75c0.03,18.73,0.02,37.45,0.02,56.18c0,1.17,0,2.35,0,4.03c0.93-0.72,1.57-1.16,2.15-1.66
		c6.81-5.9,14.68-9.01,23.72-9.02c24.51-0.02,49.02-0.01,73.53-0.01c1.26,0,2.52,0,4.15,0c0-1.55,0-2.8,0-4.04
		c0-20.87,0-41.73,0.01-62.6c0-1.27,0.03-2.58,0.31-3.81c0.54-2.39,2.25-3.66,4.62-3.68c2.37-0.02,4.1,1.22,4.69,3.6
		c0.28,1.12,0.33,2.32,0.33,3.49c0.02,31.14-0.08,62.28,0.07,93.42c0.04,8.87-6.23,14.19-14.12,14.17
		c-69.46-0.2-138.92-0.21-208.38,0c-8.52,0.03-14.33-5.74-14.31-14.3c0.13-52.86,0.07-105.72,0.07-158.59c0-1.37,0-2.73,0-4.43
		c-6.69,0-13.08-0.05-19.46,0.08c-0.6,0.01-1.37,1.05-1.71,1.77c-0.29,0.62-0.08,1.47-0.08,2.22c0,54.47-0.01,108.93,0,163.4
		c0,10.5,5.16,18.19,14.18,20.87c2.32,0.69,4.83,1.03,7.25,1.03c78.56,0.05,157.11,0.06,235.67,0.03c12.85,0,21.42-8.49,21.43-21.27
		c0.04-54.9,0-109.79,0.06-164.69c0-2.59-0.68-3.61-3.43-3.51c-5.63,0.19-11.28,0.06-17.23,0.06c0,1.5,0,2.65,0,3.8
		c0,13.48,0,26.97,0,40.45c0,0.96,0.07,1.94-0.08,2.88c-0.42,2.77-2.04,4.62-4.85,4.66c-2.82,0.04-4.5-1.76-4.95-4.53
		c-0.17-1.05-0.1-2.13-0.1-3.2c0-17.34,0-34.67,0-52.01c0-1.26,0-2.53,0-4.2c-1.43,0-2.57,0-3.71,0c-11.56,0-23.12,0.11-34.67-0.14
		c-1.64-0.04-3.74-1.51-4.68-2.94c-0.68-1.03-0.25-3.43,0.57-4.61c0.74-1.08,2.66-1.87,4.07-1.89c12.84-0.14,25.69-0.11,38.53-0.06
		c4.5,0.02,8.24,3,9.36,7.34c0.37,1.44,0.5,2.94,0.8,4.8c5.77,0,11.64,0.3,17.47-0.07c8.42-0.53,12.68,5.96,12.65,12.64
		c-0.19,54.68-0.11,109.36-0.11,164.04c0,16.94-8.06,27.35-24.53,31.72c-0.19,0.05-0.34,0.25-0.5,0.37
		C735.47-185.24,652.85-185.24,570.22-185.24z M700.04-216.7c0.89,0,1.53,0,2.16,0c32.09,0,64.19,0,96.28,0
		c0.64,0,1.43,0.19,1.89-0.1c0.9-0.59,2.26-1.44,2.29-2.21c0.19-6.15,0.1-12.3,0.1-18.3c-0.62-0.23-0.81-0.36-1.01-0.36
		c-25.78-0.01-51.56-0.29-77.34,0.1C711.71-237.39,701.81-228.42,700.04-216.7z"/>
	<path d="M679.53-352.42c-0.99-16.93-1.99-33.86-3-51.16c-2.02,0-3.8,0.03-5.59-0.01c-7.73-0.17-13.87-6.2-14.06-13.8
		c-0.21-8.46,5.2-14.71,13.38-15.46c7.26-0.67,13.97,5.05,15,12.83c0.28,2.11,0.46,4.22,0.72,6.7c1.21,0,2.36,0,3.51,0
		c4.25,0,8.51,0,12.82,0c0.28-2.58,0.47-4.8,0.77-7.01c0.98-7.37,7.5-12.95,14.63-12.55c7.98,0.45,13.79,6.73,13.74,14.83
		c-0.05,7.8-5.84,14.06-13.42,14.44c-1.91,0.1-3.84,0.01-6.23,0.01c-1.02,17.35-2.03,34.53-3.04,51.71c0.4,0.1,0.79,0.19,1.19,0.29
		c0.39-1.12,1.23-2.3,1.1-3.36c-0.64-5.07,1.59-8.99,4.24-13.03c9.73-14.83,19.21-29.83,28.83-44.73
		c23.35-36.17,1.9-84.22-40.63-90.93c-33.07-5.22-63.86,18.4-67.82,52.04c-0.41,3.52-2.65,5.64-5.57,5.3
		c-3.01-0.35-4.59-2.77-4.17-6.38c3.65-30.95,26.6-55.24,57.2-60.51c38.27-6.59,75.42,21.21,79.82,59.54
		c1.99,17.3-1.91,33.01-11.4,47.53c-9.88,15.12-19.6,30.34-29.27,45.6c-0.89,1.4-1.15,3.4-1.16,5.12
		c-0.03,4.94-1.68,8.91-5.82,11.84c-0.75,0.53-1.19,1.86-1.29,2.87c-0.3,2.97-0.07,6.01-0.57,8.93
		c-1.17,6.78-6.38,11.67-13.29,12.38c-3.59,0.37-7.28,0.43-10.87,0.07c-8.16-0.82-13.72-6.91-14.22-15.15
		c-0.06-1.07-0.11-2.15-0.01-3.21c0.31-3.1-0.15-5.53-3.15-7.57c-3.17-2.15-4.14-5.9-3.93-9.7c0.15-2.7-0.66-4.91-2.12-7.15
		c-9.91-15.23-20.02-30.33-29.4-45.88c-3.86-6.39-6.18-13.74-8.97-20.74c-0.94-2.35-0.4-5.01,2.16-5.99
		c1.52-0.58,3.71-0.24,5.27,0.43c0.99,0.43,1.69,2.15,2.02,3.42c1.82,7,4.83,13.4,8.77,19.46c10.25,15.77,20.45,31.58,30.43,47.52
		c1.3,2.08,1.22,5.03,1.71,7.6c0.25,1.35,0.34,2.72,0.5,4.08C678.73-352.27,679.13-352.35,679.53-352.42z M686.36-403.45
		c1.03,17.44,2.05,34.58,3.06,51.72c3.34,0,6.28,0,9.48,0c1.02-17.31,2.03-34.44,3.04-51.72
		C696.63-403.45,691.75-403.45,686.36-403.45z M685.36-341.74c-1.1,6.9-0.43,10.22,2.35,11.92c2.23,1.37,12.13,1.25,13.98-0.33
		c3.89-3.3,1.77-7.62,2.24-11.59C697.41-341.74,691.37-341.74,685.36-341.74z M675.83-413.21c-0.1-2.14-0.12-3.82-0.26-5.48
		c-0.23-2.58-1.63-4.09-4.28-4.21c-2.69-0.13-4.24,1.4-4.66,3.85c-0.41,2.41,0.45,4.58,3.01,5.25
		C671.52-413.3,673.55-413.4,675.83-413.21z M712.48-413.18c2.37-0.22,4.42-0.11,6.29-0.65c2.53-0.72,3.37-2.91,2.9-5.32
		c-0.47-2.44-2.06-3.92-4.74-3.75c-2.49,0.16-3.88,1.57-4.16,3.99C712.58-417.23,712.59-415.54,712.48-413.18z"/>
	<path d="M635.08-280.17c8.55,0,17.1-0.04,25.66,0.02c3.66,0.02,5.82,1.99,5.78,5.01c-0.03,2.91-2.07,4.79-5.59,4.87
		c-4.59,0.1-9.19,0.03-13.79,0.03c-11.97,0-23.95,0-35.92,0c-0.86,0-1.71,0.04-2.56-0.02c-3.28-0.23-5.27-2.06-5.32-4.84
		c-0.06-2.86,2.1-4.99,5.45-5.04c5.88-0.09,11.76-0.03,17.64-0.03C629.31-280.17,632.2-280.17,635.08-280.17z"/>
	<path d="M754.03-270.24c-8.12,0-16.25,0-24.37-0.01c-0.96,0-1.94,0.03-2.87-0.13c-2.62-0.47-4.28-1.97-4.32-4.74
		c-0.04-2.94,1.73-4.58,4.46-4.95c2.1-0.29,4.27-0.11,6.4-0.11c14.97-0.01,29.93,0,44.9,0c1.07,0,2.17-0.09,3.19,0.13
		c2.59,0.56,4.22,2.17,4.17,4.9c-0.05,2.71-1.62,4.39-4.31,4.74c-1.68,0.22-3.41,0.14-5.12,0.14
		C768.78-270.23,761.41-270.24,754.03-270.24z"/>
	<path d="M634.75-317.3c-8.55,0-17.1,0.05-25.65-0.02c-4.01-0.04-6.24-2.33-5.66-5.61c0.48-2.69,2.25-4.14,4.92-4.14
		c17.74-0.05,35.48-0.06,53.23,0.01c2.94,0.01,4.9,2.13,4.94,4.82c0.04,2.81-1.91,4.85-5.17,4.89c-8.87,0.1-17.74,0.03-26.61,0.03
		C634.75-317.32,634.75-317.31,634.75-317.3z"/>
	<path d="M753.87-327.11c8.55,0,17.1-0.02,25.65,0.01c3.86,0.01,6.16,1.94,6.1,5c-0.06,3-2.14,4.78-5.96,4.79
		c-17.1,0.04-34.2,0.04-51.3,0c-3.82-0.01-5.89-1.82-5.92-4.81c-0.03-3.15,2.15-4.96,6.1-4.97
		C736.99-327.12,745.43-327.11,753.87-327.11z"/>
	<path d="M635.1-293.79c-8.55,0-17.1,0.01-25.65-0.01c-3.88-0.01-6.17-1.89-6.13-4.96c0.04-2.99,2.15-4.76,5.95-4.76
		c17.1-0.03,34.2-0.03,51.3,0c3.8,0.01,5.9,1.77,5.94,4.76c0.04,3.14-2.16,4.96-6.09,4.96C651.99-293.77,643.55-293.79,635.1-293.79
		z"/>
	<path d="M754.15-293.79c-8.55,0-17.1,0.01-25.65-0.01c-3.96-0.01-6.12-1.82-6.06-4.99c0.05-2.99,2.15-4.72,5.97-4.73
		c17.1-0.03,34.2-0.03,51.3,0c3.81,0.01,5.9,1.78,5.93,4.79c0.03,3.06-2.27,4.93-6.15,4.94
		C771.04-293.78,762.59-293.79,754.15-293.79z"/>
	<path d="M623.04-341.91c-7.58,0-15.16,0.01-22.74-0.01c-3.55-0.01-5.58-1.72-5.66-4.66c-0.08-3.05,2.06-4.95,5.71-4.95
		c15.27-0.02,30.53-0.02,45.8,0c3.58,0,5.56,1.7,5.63,4.68c0.07,3.14-1.95,4.92-5.68,4.93C638.41-341.9,630.73-341.91,623.04-341.91
		z"/>
	<path d="M765.7-341.91c-7.58,0-15.16,0.01-22.74,0c-3.79-0.01-5.8-1.71-5.78-4.83c0.02-3.12,2.01-4.78,5.84-4.78
		c15.16-0.01,30.32-0.01,45.48,0c3.71,0,5.83,1.81,5.81,4.85c-0.02,3.04-2.11,4.76-5.88,4.76
		C780.86-341.9,773.28-341.91,765.7-341.91z"/>
	<path d="M615.49-452.19c-1.01,1.68-1.52,3.17-2.53,4.12c-3.26,3.08-6.65,6.03-10.09,8.9c-2.47,2.06-5.26,1.83-7.11-0.37
		c-1.74-2.05-1.6-4.85,0.6-6.88c3.38-3.11,6.74-6.28,10.42-9c1.28-0.94,3.7-1.22,5.22-0.69
		C613.39-455.63,614.27-453.66,615.49-452.19z"/>
	<path d="M794.79-442.35c-0.89,1.23-1.58,3.1-2.86,3.68c-1.41,0.65-3.88,0.81-4.98-0.02c-4.09-3.07-7.93-6.5-11.61-10.06
		c-1.91-1.85-1.79-4.34,0.02-6.37c1.68-1.89,4.01-2.52,6.03-0.91c4.09,3.26,7.96,6.79,11.81,10.32
		C793.92-445.06,794.11-443.85,794.79-442.35z"/>
	<path d="M598.84-496.35c3.56,0.34,15.73,10.78,15.74,13.18c0.01,1.66-0.77,4-2.01,4.82c-1.25,0.84-4.04,0.92-5.21,0.05
		c-4.1-3.04-7.97-6.44-11.5-10.12c-0.98-1.03-1.13-3.74-0.5-5.18C595.99-495.01,598.07-495.79,598.84-496.35z"/>
	<path d="M778.32-476.97c-1.11-0.92-3.01-1.76-3.56-3.14c-0.56-1.41-0.46-3.98,0.48-4.95c3.64-3.73,7.6-7.17,11.69-10.39
		c2.07-1.63,4.54-1.09,6.28,0.98c1.65,1.97,1.76,4.37-0.05,6.11c-3.76,3.61-7.79,6.95-11.78,10.32
		C780.8-477.55,779.84-477.48,778.32-476.97z"/>
</g>
<g>
	<path class="st0" d="M-305.25-357.41c-1.56,1.21-2.98,2.71-4.71,3.57c-11,5.49-22.09,10.8-33.09,16.27
		c-1.32,0.65-2.6,1.72-3.45,2.91c-4.94,7-10.92,12.82-18.43,17.04c-0.74,0.42-1.46,1.29-1.7,2.1c-2.95,9.79-6.98,13.21-16.92,14.17
		c-2.52,9.96-7.12,14-17.33,15.09c-1.78,9.24-7.45,14.23-17.22,14.93c-0.93,5.87-3.95,10.58-9.48,13.21
		c-5.62,2.67-11.11,1.93-16.15-1.56c-14.45,9.48-25.36,5.85-28.85-9.58c-9.98-0.2-15.81-5.25-17.2-15.18
		c-12.08-1.13-16.72-8.24-16.72-17.63c-5.22-1.1-9.39-3.78-12.08-8.6c-0.37-0.67-1.39-1.01-2.15-1.42
		c-10.73-5.76-20.04-13.23-27.56-22.87c-0.73-0.93-1.92-1.6-3.02-2.14c-16.07-7.91-32.15-15.79-48.25-23.63
		c-2.38-1.16-4.21-2.62-3.59-5.54c0.64-3.07,3.71-4.25,6.94-2.7c7.5,3.61,14.96,7.3,22.44,10.96c9.22,4.5,18.46,8.95,27.63,13.56
		c1.67,0.84,3.26,2.13,4.44,3.57c6.17,7.61,13.19,14.17,22.06,19.1c1.2-5.06,4.81-8.14,8.4-11.29c5.1-4.48,10.06-9.12,15.11-13.66
		c2.39-2.15,5.16-2.09,6.91,0.03c1.72,2.09,1.4,4.39-1.06,6.62c-6.03,5.49-12.11,10.91-18.14,16.39c-2.21,2.01-3.46,4.41-2.64,7.51
		c0.75,2.82,2.62,4.55,5.42,5.02c1.27,0.21,2.71-0.01,3.95-0.43c2.21-0.74,4.25-0.9,5.81,1.07c1.52,1.93,1.13,3.89-0.17,5.9
		c-2.13,3.27-1.87,6.75,0.49,9.03c2.45,2.37,6.57,2.59,9.62,0.31c2.18-1.63,4.26-2.37,6.53-0.37c1.84,1.62,1.85,3.78,0.11,6.53
		c-1.93,3.06-1.76,6.58,0.44,8.83c2.38,2.43,6.31,2.75,9.36,0.75c0.57-0.37,1.07-0.83,1.62-1.23c1.9-1.4,3.85-1.36,5.58,0.18
		c1.83,1.64,1.86,3.56,0.81,5.79c-0.87,1.85-1.74,3.93-1.72,5.9c0.03,2.73,1.9,4.49,4.6,5.32c3.45,1.06,6.01-0.32,8.6-2.91
		c-1-1.17-1.95-2.33-2.95-3.45c-4.31-4.85-5.63-10.4-3.25-16.44c2.4-6.1,7.19-9.52,13.67-10.29c1.85-0.22,2.53-0.7,2.92-2.63
		c1.31-6.45,7.34-11.6,13.9-12.24c0.86-0.08,1.73-0.17,2.63-0.25c1.97-9.38,7.53-14.59,17.41-15c0.53-4.26,2.31-7.88,5.59-10.76
		c6.67-5.85,15.87-5.5,21.9,1.01c3.16,3.41,6.13,6.99,9.66,11.03c2.94-2.37,5.99-4.66,8.84-7.18c1.58-1.4,3.11-3.02,4.15-4.84
		c2.69-4.69,6.76-7.39,11.56-9.61c10.28-4.75,20.37-9.9,30.55-14.87c4.08-1.99,5.26-1.75,8.19,1.64
		C-305.25-359.35-305.25-358.38-305.25-357.41z M-440.93-288.28c-3.42,0.53-5.48,2.19-6.85,4.71c-1.34,2.47-0.87,4.93,0.86,7.05
		c2.4,2.92,4.88,5.77,7.41,8.58c2.88,3.18,6.62,3.4,9.78,0.7c3.1-2.65,3.46-6.55,0.78-9.79c-2.29-2.76-4.56-5.56-7.09-8.08
		C-437.38-286.45-439.28-287.24-440.93-288.28z M-375.56-318.32c-0.2-0.5-0.43-1.95-1.22-2.93c-2.67-3.32-5.41-6.6-8.38-9.64
		c-2.52-2.58-6.37-2.36-9.18,0.13c-2.69,2.38-3.35,6.06-1.19,8.86c2.6,3.36,5.42,6.58,8.35,9.66c1.96,2.06,4.54,2.63,7.19,1.33
		C-377.3-312.23-375.48-314.25-375.56-318.32z M-392.56-302.8c-0.26-0.73-0.37-2.03-1.06-2.86c-3.01-3.66-6-7.38-9.37-10.7
		c-2.43-2.39-5.95-1.85-8.66,0.65c-2.63,2.42-3.31,5.89-1.2,8.63c2.72,3.52,5.69,6.87,8.78,10.07c1.93,2,4.54,2.12,7.02,0.96
		C-394.42-297.28-392.86-299.41-392.56-302.8z M-409.96-288.35c-0.27-0.61-0.58-2.1-1.43-3.17c-2.54-3.17-5.2-6.26-8-9.2
		c-2.62-2.75-6.2-2.76-9.12-0.31c-3.04,2.54-3.7,6.22-1.32,9.26c2.56,3.27,5.34,6.39,8.18,9.43c1.98,2.12,4.57,2.5,7.19,1.33
		C-411.71-282.24-409.99-284.33-409.96-288.35z"/>
	<path class="st0" d="M-451.99-552.44c6.5,1.37,12.99,2.77,19.51,4.09c9.48,1.92,18.99,3.68,28.44,5.69
		c6.19,1.32,9.42,5.2,9.5,11.44c0.13,10.09,0.07,20.18,0.02,30.27c-0.02,3.26-1.92,5.37-4.53,5.34c-2.62-0.03-4.44-2.14-4.46-5.42
		c-0.04-9.6-0.12-19.21,0.05-28.81c0.05-2.77-0.83-3.99-3.53-4.51c-14.82-2.84-29.57-6.03-44.44-8.55
		c-3.82-0.65-8.02,0.41-11.96,1.13c-12.74,2.35-25.44,4.92-38.17,7.37c-3.94,0.76-4.07,0.84-4.07,4.84
		c0,11.84-0.03,23.67,0.01,35.51c0.09,25.24,15.5,47.11,39.21,55.7c1.18,0.43,2.47,0.66,3.54,1.29c5.71,3.34,11.07,2.2,17.04,0.04
		c15.83-5.73,28.3-15.16,35.91-30.33c2.19-4.37,3.58-9.16,5.06-13.85c1.1-3.48,2.91-5.21,5.53-4.57c2.95,0.72,4.05,3.11,3.05,7.01
		c-5.93,23.21-19.98,39.37-42.24,48.3c-15.27,6.12-15.36,6.26-30.79,0.39c-25.85-9.83-40.81-28.75-44.68-55.99
		c-1.22-8.57-0.51-17.43-0.6-26.16c-0.07-6.11-0.07-12.22,0-18.33c0.08-7.01,3.1-10.8,9.99-12.18c15.46-3.11,30.94-6.08,46.41-9.12
		c0.54-0.11,1.05-0.4,1.57-0.6C-455.09-552.44-453.54-552.44-451.99-552.44z"/>
	<path class="st0" d="M-433.4-396.25c1.2,1.32,1.8,2.03,2.45,2.69c5.44,5.54,10.94,11.02,16.33,16.61
		c6.34,6.57,6.76,15.61,1.15,22.09c-5.63,6.5-14.64,7.51-22.02,2.35c-7.62-5.33-15.18-10.74-22.99-16.27
		c-0.92,0.78-1.8,1.49-2.64,2.24c-4.67,4.24-9.31,8.51-14,12.73c-2.42,2.18-5.16,2.21-6.92,0.17c-1.71-1.98-1.41-4.54,0.91-6.67
		c5.44-4.98,10.88-9.95,16.39-14.86c3.7-3.3,7.52-3.52,11.67-0.63c7.48,5.21,14.82,10.62,22.38,15.71c1.71,1.15,4.1,1.81,6.16,1.78
		c2.67-0.04,4.69-1.91,5.56-4.48c0.96-2.86,0.44-5.57-1.75-7.8c-3.74-3.81-7.5-7.59-11.26-11.39c-3.82-3.86-7.67-7.7-11.46-11.59
		c-13.83-14.18-30.5-19.09-49.88-15.52c-8.09,1.49-16.22,2.75-24.37,3.9c-1.69,0.24-3.7-0.08-5.25-0.81
		c-25.54-11.89-51.03-23.88-76.52-35.85c-3.4-1.6-4.55-3.75-3.4-6.3c1.22-2.71,3.72-3.35,7.13-1.75
		c23.22,10.88,46.52,21.6,69.58,32.81c5.42,2.63,10.37,2.91,16.08,1.92c9.61-1.67,19.32-3.43,29.04-3.75
		c14.36-0.48,27.15,4.68,38.19,13.88c1.69,1.41,3.08,1.73,5.19,1.11c14.61-4.28,28.98-2.97,42.93,2.67
		c4.33,1.75,7.6,1.18,11.54-1.15c22.91-13.61,45.98-26.94,68.99-40.36c0.42-0.24,0.83-0.5,1.26-0.72c2.55-1.3,5.1-0.71,6.35,1.45
		c1.3,2.24,0.66,4.65-1.91,6.18c-7.66,4.55-15.37,9.02-23.07,13.51c-16.57,9.66-33.21,19.21-49.68,29.03
		c-4.57,2.72-8.85,3.24-13.77,1.31c-8.42-3.29-17.06-5.9-26.25-5.53C-425.09-397.39-428.89-396.75-433.4-396.25z"/>
	<path class="st0" d="M-411.96-506.2c-0.11,8.37,0.6,17.51-2.16,26.4c-4.64,14.92-14.01,25.73-28.28,32.04
		c-12.13,5.37-14.26,5.28-26.13-0.83c-18.79-9.67-28.18-25.31-28.61-46.34c-0.18-8.72-0.05-17.45-0.02-26.18
		c0.01-4.39,1.03-5.48,5.44-6.34c11.39-2.23,22.72-4.77,34.17-6.59c3.85-0.61,8.03,0.25,11.97,0.96c9.7,1.74,19.35,3.78,29.02,5.71
		c3.32,0.66,4.58,2.14,4.61,5.63C-411.92-516.81-411.96-511.87-411.96-506.2z M-488.18-519.12c0,8.37,0.14,16.51-0.03,24.64
		c-0.32,15.75,8.6,34.6,32.61,41.5c0.62,0.18,1.38,0.21,1.99,0.02c14.89-4.54,25.91-13.34,30.7-28.62c1.11-3.55,1.69-7.38,1.8-11.11
		c0.26-8.79,0.08-17.6,0.08-26.53c-11.04-2.18-21.84-4.31-32.65-6.42c-0.56-0.11-1.17-0.06-1.73,0.05
		C-466.23-523.47-477.04-521.33-488.18-519.12z"/>
	<path class="st0" d="M-462.1-482.54c6.08-7.39,12.13-14.7,18.14-22.04c3.11-3.79,5.51-4.57,7.92-2.48
		c2.28,1.97,1.94,4.48-1.02,8.07c-6.79,8.22-13.55,16.46-20.33,24.69c-2.85,3.46-5.03,3.64-8.26,0.66c-2-1.84-4.02-3.66-5.93-5.58
		c-2-2.01-2.09-4.68-0.34-6.48c1.78-1.83,4-1.9,6.24-0.09C-464.47-484.8-463.38-483.7-462.1-482.54z"/>
</g>
<g>
	<path d="M-262.29-21.61c-1.56,1.21-2.98,2.71-4.71,3.57c-11,5.49-22.09,10.8-33.09,16.27c-1.32,0.65-2.6,1.72-3.45,2.91
		c-4.94,7-10.92,12.82-18.43,17.04c-0.74,0.42-1.46,1.29-1.7,2.1c-2.95,9.79-6.98,13.21-16.92,14.17c-2.52,9.96-7.12,14-17.33,15.09
		c-1.78,9.24-7.45,14.23-17.22,14.93c-0.93,5.87-3.95,10.58-9.48,13.21c-5.62,2.67-11.11,1.93-16.15-1.56
		c-14.45,9.48-25.36,5.85-28.85-9.58c-9.98-0.2-15.81-5.25-17.2-15.18c-12.08-1.13-16.72-8.24-16.72-17.63
		c-5.22-1.1-9.39-3.78-12.08-8.6c-0.37-0.67-1.39-1.01-2.15-1.42c-10.73-5.76-20.04-13.23-27.56-22.87
		c-0.73-0.93-1.92-1.6-3.02-2.14c-16.07-7.91-32.15-15.79-48.25-23.63c-2.38-1.16-4.21-2.62-3.59-5.54c0.64-3.07,3.71-4.25,6.94-2.7
		c7.5,3.61,14.96,7.3,22.44,10.96c9.22,4.5,18.46,8.95,27.63,13.56c1.67,0.84,3.26,2.13,4.44,3.57c6.17,7.61,13.19,14.17,22.06,19.1
		c1.2-5.06,4.81-8.14,8.4-11.29c5.1-4.48,10.06-9.12,15.11-13.66c2.39-2.15,5.16-2.09,6.91,0.03c1.72,2.09,1.4,4.39-1.06,6.62
		c-6.03,5.49-12.11,10.91-18.14,16.39c-2.21,2.01-3.46,4.41-2.64,7.51c0.75,2.82,2.62,4.55,5.42,5.02c1.27,0.21,2.71-0.01,3.95-0.43
		c2.21-0.74,4.25-0.9,5.81,1.07c1.52,1.93,1.13,3.89-0.17,5.9c-2.13,3.27-1.87,6.75,0.49,9.03c2.45,2.37,6.57,2.59,9.62,0.31
		c2.18-1.63,4.26-2.37,6.53-0.37c1.84,1.62,1.85,3.78,0.11,6.53c-1.93,3.06-1.76,6.58,0.44,8.83c2.38,2.43,6.31,2.75,9.36,0.75
		c0.57-0.37,1.07-0.83,1.62-1.23c1.9-1.4,3.85-1.36,5.58,0.18c1.83,1.64,1.86,3.56,0.81,5.79c-0.87,1.85-1.74,3.93-1.72,5.9
		c0.03,2.73,1.9,4.49,4.6,5.32c3.45,1.06,6.01-0.32,8.6-2.91c-1-1.17-1.95-2.33-2.95-3.45c-4.31-4.85-5.63-10.4-3.25-16.44
		c2.4-6.1,7.19-9.52,13.67-10.29c1.85-0.22,2.53-0.7,2.92-2.63c1.31-6.45,7.34-11.6,13.9-12.24c0.86-0.08,1.73-0.17,2.63-0.25
		c1.97-9.38,7.53-14.59,17.41-15c0.53-4.26,2.31-7.88,5.59-10.76c6.67-5.85,15.87-5.5,21.9,1.01c3.16,3.41,6.13,6.99,9.66,11.03
		c2.94-2.37,5.99-4.66,8.84-7.18c1.58-1.4,3.11-3.02,4.15-4.84c2.69-4.69,6.76-7.39,11.56-9.61c10.28-4.75,20.37-9.9,30.55-14.87
		c4.08-1.99,5.26-1.75,8.19,1.64C-262.29-23.55-262.29-22.58-262.29-21.61z M-397.96,47.52c-3.42,0.53-5.48,2.19-6.85,4.71
		c-1.34,2.47-0.87,4.93,0.86,7.05c2.4,2.92,4.88,5.77,7.41,8.58c2.88,3.18,6.62,3.4,9.78,0.7c3.1-2.65,3.46-6.55,0.78-9.79
		c-2.29-2.76-4.56-5.56-7.09-8.08C-394.42,49.35-396.31,48.56-397.96,47.52z M-332.6,17.48c-0.2-0.5-0.43-1.95-1.22-2.93
		c-2.67-3.32-5.41-6.6-8.38-9.64c-2.52-2.58-6.37-2.36-9.18,0.13c-2.69,2.38-3.35,6.06-1.19,8.86c2.6,3.36,5.42,6.58,8.35,9.66
		c1.96,2.06,4.54,2.63,7.19,1.33C-334.34,23.57-332.51,21.55-332.6,17.48z M-349.59,33c-0.26-0.73-0.37-2.03-1.06-2.86
		c-3.01-3.66-6-7.38-9.37-10.7c-2.43-2.39-5.95-1.85-8.66,0.65c-2.63,2.42-3.31,5.89-1.2,8.63c2.72,3.52,5.69,6.87,8.78,10.07
		c1.93,2,4.54,2.12,7.02,0.96C-351.45,38.52-349.9,36.39-349.59,33z M-366.99,47.45c-0.27-0.61-0.58-2.1-1.43-3.17
		c-2.54-3.17-5.2-6.26-8-9.2c-2.62-2.75-6.2-2.76-9.12-0.31c-3.04,2.54-3.7,6.22-1.32,9.26c2.56,3.27,5.34,6.39,8.18,9.43
		c1.98,2.12,4.57,2.5,7.19,1.33C-368.74,53.56-367.02,51.47-366.99,47.45z"/>
	<path d="M-409.02-216.64c6.5,1.37,12.99,2.77,19.51,4.09c9.48,1.92,18.99,3.68,28.44,5.69c6.19,1.32,9.42,5.2,9.5,11.44
		c0.13,10.09,0.07,20.18,0.02,30.27c-0.02,3.26-1.92,5.37-4.53,5.34c-2.62-0.03-4.44-2.14-4.46-5.42
		c-0.04-9.6-0.12-19.21,0.05-28.81c0.05-2.77-0.83-3.99-3.53-4.51c-14.82-2.84-29.57-6.03-44.44-8.55
		c-3.82-0.65-8.02,0.41-11.96,1.13c-12.74,2.35-25.44,4.92-38.17,7.37c-3.94,0.76-4.07,0.84-4.07,4.84
		c0,11.84-0.03,23.67,0.01,35.51c0.09,25.24,15.5,47.11,39.21,55.7c1.18,0.43,2.47,0.66,3.54,1.29c5.71,3.34,11.07,2.2,17.04,0.04
		c15.83-5.73,28.3-15.16,35.91-30.33c2.19-4.37,3.58-9.16,5.06-13.85c1.1-3.48,2.91-5.21,5.53-4.57c2.95,0.72,4.05,3.11,3.05,7.01
		c-5.93,23.21-19.98,39.37-42.24,48.3c-15.27,6.12-15.36,6.26-30.79,0.39c-25.85-9.83-40.81-28.75-44.68-55.99
		c-1.22-8.57-0.51-17.43-0.6-26.16c-0.07-6.11-0.07-12.22,0-18.33c0.08-7.01,3.1-10.8,9.99-12.18c15.46-3.11,30.94-6.08,46.41-9.12
		c0.54-0.11,1.05-0.4,1.57-0.6C-412.13-216.64-410.57-216.64-409.02-216.64z"/>
	<path d="M-390.43-60.45c1.2,1.32,1.8,2.03,2.45,2.69c5.44,5.54,10.94,11.02,16.33,16.61c6.34,6.57,6.76,15.61,1.15,22.09
		c-5.63,6.5-14.64,7.51-22.02,2.35c-7.62-5.33-15.19-10.74-22.99-16.27c-0.92,0.78-1.8,1.49-2.64,2.24
		c-4.67,4.24-9.31,8.51-14,12.73c-2.42,2.18-5.16,2.21-6.92,0.17c-1.71-1.98-1.41-4.54,0.91-6.67c5.44-4.98,10.88-9.95,16.39-14.86
		c3.7-3.3,7.52-3.52,11.67-0.63c7.48,5.21,14.82,10.62,22.38,15.71c1.71,1.15,4.1,1.81,6.16,1.78c2.67-0.04,4.69-1.91,5.56-4.48
		c0.96-2.86,0.44-5.57-1.75-7.8c-3.74-3.81-7.5-7.59-11.26-11.39c-3.82-3.86-7.67-7.7-11.46-11.59
		c-13.83-14.18-30.5-19.09-49.88-15.52c-8.09,1.49-16.22,2.75-24.37,3.9c-1.69,0.24-3.7-0.08-5.25-0.81
		c-25.54-11.89-51.03-23.88-76.52-35.85c-3.4-1.6-4.55-3.75-3.4-6.3c1.22-2.71,3.72-3.35,7.13-1.75
		c23.22,10.88,46.52,21.6,69.58,32.81c5.42,2.63,10.37,2.91,16.08,1.92c9.61-1.67,19.32-3.43,29.04-3.75
		c14.36-0.48,27.15,4.68,38.19,13.88c1.69,1.41,3.08,1.73,5.19,1.11c14.61-4.28,28.98-2.97,42.93,2.67
		c4.33,1.75,7.6,1.18,11.54-1.15c22.91-13.61,45.98-26.94,68.99-40.36c0.42-0.24,0.83-0.5,1.26-0.72c2.55-1.3,5.1-0.71,6.35,1.45
		c1.3,2.24,0.66,4.65-1.91,6.18c-7.66,4.55-15.37,9.02-23.07,13.51c-16.57,9.66-33.21,19.21-49.68,29.03
		c-4.57,2.72-8.85,3.24-13.77,1.31c-8.42-3.29-17.06-5.9-26.25-5.53C-382.12-61.59-385.92-60.95-390.43-60.45z"/>
	<path d="M-368.99-170.4c-0.11,8.37,0.6,17.51-2.16,26.4c-4.64,14.92-14.01,25.73-28.28,32.04c-12.13,5.37-14.26,5.28-26.13-0.83
		c-18.79-9.67-28.18-25.31-28.61-46.34c-0.18-8.72-0.05-17.45-0.02-26.18c0.01-4.39,1.03-5.48,5.44-6.34
		c11.39-2.23,22.72-4.77,34.17-6.59c3.85-0.61,8.03,0.25,11.97,0.96c9.7,1.74,19.35,3.78,29.02,5.71c3.32,0.66,4.58,2.14,4.61,5.63
		C-368.95-181.01-368.99-176.07-368.99-170.4z M-445.21-183.32c0,8.37,0.14,16.51-0.03,24.64c-0.32,15.75,8.6,34.6,32.61,41.5
		c0.62,0.18,1.38,0.21,1.99,0.02c14.89-4.54,25.91-13.34,30.7-28.62c1.11-3.55,1.69-7.38,1.8-11.11c0.26-8.79,0.08-17.6,0.08-26.53
		c-11.04-2.18-21.84-4.31-32.65-6.42c-0.56-0.11-1.17-0.06-1.73,0.05C-423.27-187.67-434.08-185.53-445.21-183.32z"/>
	<path d="M-419.14-146.74c6.08-7.39,12.13-14.7,18.14-22.04c3.11-3.79,5.51-4.57,7.92-2.48c2.28,1.97,1.94,4.48-1.02,8.07
		c-6.79,8.22-13.55,16.46-20.33,24.69c-2.85,3.46-5.03,3.64-8.26,0.66c-2-1.84-4.02-3.66-5.93-5.58c-2-2.01-2.09-4.68-0.34-6.48
		c1.78-1.83,4-1.9,6.24-0.09C-421.51-149-420.41-147.9-419.14-146.74z"/>
</g>
<g>
	<path class="st0" d="M1124.3,11.15c2.39,1.61,5.04,2.95,7.1,4.9c2.85,2.71,3.71,6.4,3.68,10.32c-0.06,6.58,0.02,13.17-0.02,19.75
		c-0.05,10.29-5.4,15.83-15.71,16.33c-0.58,0.03-1.15,0.1-2.1,0.19c0,4.12-0.07,8.22,0.08,12.3c0.02,0.62,0.98,1.61,1.63,1.73
		c18.9,3.5,36.42,10.51,53.03,20.93c4.22-4.61,8.35-9.22,12.6-13.72c3.62-3.84,8.05-5.24,13.12-3.45c1.72,0.61,3.38,1.7,4.75,2.92
		c6.67,5.95,13.26,11.97,19.82,18.04c5.74,5.31,6.13,12.23,1.05,18.16c-1.99,2.32-4.11,4.52-6.17,6.78
		c-2.05,2.25-4.09,4.52-6.32,6.98c1.94,2.84,3.89,5.58,5.73,8.4c13.1,20.1,20.98,42.04,23.51,65.94
		c7.25,68.64-32.99,132.3-95.78,154.92c-57.5,20.71-109.66,9.46-155.26-31.42c-3.09-2.77-3.42-5.87-1.21-8.31
		c2.36-2.6,5.31-2.51,8.61,0.6c14.73,13.89,31.55,24.37,50.78,30.77c74.45,24.75,153.41-15.45,176.73-89.91
		c24.51-78.24-25.16-161.42-105.62-176.86c-74.07-14.22-146.11,33.13-161.71,106.94c-8.3,39.27-0.64,75.75,22.33,108.84
		c0.8,1.16,1.72,2.25,2.4,3.48c1.47,2.62,0.82,5.66-1.55,7.14c-2.53,1.58-4.95,1.26-6.98-0.94c-1.03-1.12-1.89-2.4-2.76-3.65
		c-14.76-21.07-23.79-44.31-26.36-69.98c-3.85-38.43,5.58-73.28,28.31-104.52c0.27-0.38,0.48-0.8,0.89-1.47
		c-3.68-4.04-7.38-8.11-11.1-12.16c-6.97-7.6-6.68-13.97,0.97-20.93c5.91-5.38,11.81-10.77,17.71-16.17
		c6.71-6.13,13.4-5.86,19.65,0.87c3.28,3.53,6.57,7.06,9.72,10.7c1.28,1.48,2.26,1.91,4.09,0.76c15.46-9.72,32.27-16.03,50.15-19.64
		c0.93-0.19,2.23-1.6,2.29-2.52c0.26-3.73,0.11-7.49,0.11-11.44c-2.09-0.3-4.05-0.47-5.95-0.87c-5.95-1.25-10.8-6.53-10.99-12.61
		c-0.26-8.34-0.27-16.69-0.01-25.03c0.21-6.84,4.87-10.5,10.59-13.11C1081.5,11.15,1102.9,11.15,1124.3,11.15z M979.53,124.59
		c7.72-7.15,15.19-14.06,22.89-21.18c-3.48-3.82-7.02-7.87-10.8-11.67c-0.61-0.61-2.79-0.63-3.47-0.04
		c-6.54,5.71-12.96,11.56-19.25,17.54c-0.62,0.59-0.72,2.73-0.16,3.39C972.2,116.74,975.92,120.64,979.53,124.59z M1204.17,124.59
		c3.57-3.91,7.35-7.9,10.9-12.09c0.52-0.61,0.45-2.61-0.13-3.15c-6.39-6.04-12.9-11.96-19.5-17.79c-0.62-0.55-2.52-0.71-2.99-0.23
		c-3.91,3.99-7.62,8.16-11.19,12.06C1189.06,110.61,1196.52,117.51,1204.17,124.59z M1100.79,51.35c0-10.08,0-19.75,0-29.36
		c-5.91,0-11.58,0-17.17,0c0,9.94,0,19.61,0,29.36C1089.44,51.35,1095.02,51.35,1100.79,51.35z M1072.55,51.48
		c0-10.21,0-19.9,0-29.75c-2.94,0-5.64-0.1-8.32,0.03c-2.59,0.12-4.16,1.48-4.16,4.22c-0.01,7.17-0.02,14.33,0.01,21.5
		c0.01,2.53,1.33,3.94,3.9,3.98C1066.78,51.52,1069.58,51.48,1072.55,51.48z M1111.72,51.48c3.12,0,5.93,0.04,8.73-0.01
		c2.58-0.05,3.87-1.49,3.88-4.01c0.03-7.17,0.02-14.33,0.01-21.5c0-2.56-1.43-4-3.84-4.16c-2.88-0.2-5.78-0.05-8.78-0.05
		C1111.72,31.78,1111.72,41.37,1111.72,51.48z M1106.34,74.42c0-3.94,0-7.85,0-11.69c-9.85,0-19.42,0-29.03,0c0,4.1,0,7.91,0,11.69
		C1087.09,74.42,1096.66,74.42,1106.34,74.42z"/>
	<path class="st0" d="M1097.48,114.89c-0.06,1.33-0.15,2.36-0.15,3.4c-0.01,22.69,0.02,45.37-0.05,68.06
		c-0.01,2.48,0.54,3.54,3.24,4.24c21.79,5.69,31.87,30.56,20.43,50.02c-0.47,0.8-0.94,1.59-1.25,2.12
		c17.71,17.71,35.31,35.3,53.08,53.08c7.6-8.3,13.98-17.81,18.46-28.44c14.23-33.75,12.44-66.72-5.37-98.78
		c-0.78-1.4-1.51-2.97-1.69-4.53c-0.3-2.69,1.32-4.52,3.8-5.23c2.7-0.77,5.01,0.3,6.17,2.82c4.07,8.81,8.97,17.39,11.78,26.6
		c20.66,67.54-20.7,137.32-89.81,152.13c-62.93,13.49-126.61-27.41-140.71-90.37c-14.25-63.63,23.69-126.62,86.98-142.31
		c44.6-11.06,83.49,0.98,116.05,33.36c3.38,3.36,3.61,6.38,0.94,8.84c-2.58,2.38-5.33,1.99-8.55-1.35
		c-16.03-16.62-35.31-27.34-57.98-31.87c-3.79-0.76-7.64-1.23-11.47-1.75C1100.25,114.76,1099.06,114.89,1097.48,114.89z
		 M1019.02,142.57c5.48,6.36,6.34,8.82,3.63,11.27c-5.24,4.74-7.98-0.86-11.53-3.37c-17.09,19.28-26.27,41.53-27.93,67.2
		c4.3,0.65,10.35-1.28,10.46,5.47c0.11,7.04-6.21,4.95-10.46,5.74c1.66,25.75,10.91,48.01,27.98,67.3
		c3.37-2.68,6.37-8.15,11.17-3.55c5.09,4.86-0.94,7.87-3.29,11.45c19.31,16.92,41.46,26.28,67.06,27.77
		c0.72-4.21-1.03-9.86,5.1-10.34c7.6-0.6,5.38,6.24,6.49,10.28c29.23-1.08,56.07-16.43,66.16-27.62
		c-17.61-17.61-35.19-35.2-52.85-52.86c-6.76,4.01-11.98,5.76-18.06,5.92c-17.39,0.48-32.11-12.04-34.8-29.58
		c-2.48-16.19,8.41-32.67,24.78-36.98c3.03-0.8,3.49-2.08,3.48-4.78c-0.09-22.33-0.05-44.66-0.05-66.99c0-1.26,0-2.52,0-4.26
		C1060.49,116.35,1038.27,125.53,1019.02,142.57z M1091.95,246.44c12.81-0.1,23.37-10.8,23.14-23.44
		c-0.23-12.8-10.77-22.97-23.7-22.85c-12.53,0.12-23,10.87-22.78,23.41C1068.82,236.22,1079.35,246.54,1091.95,246.44z"/>
</g>
<g>
	<path d="M181.46,485.23c2.39,1.61,5.04,2.95,7.1,4.9c2.85,2.71,3.71,6.4,3.68,10.32c-0.06,6.58,0.02,13.17-0.02,19.75
		c-0.05,10.29-5.4,15.83-15.71,16.33c-0.58,0.03-1.15,0.1-2.1,0.19c0,4.12-0.07,8.22,0.08,12.3c0.02,0.62,0.98,1.61,1.63,1.73
		c18.9,3.5,36.42,10.51,53.03,20.93c4.22-4.61,8.36-9.22,12.6-13.72c3.62-3.84,8.05-5.24,13.12-3.45c1.72,0.61,3.38,1.7,4.75,2.92
		c6.67,5.95,13.26,11.97,19.82,18.04c5.74,5.31,6.13,12.23,1.05,18.16c-1.99,2.32-4.11,4.52-6.17,6.78
		c-2.05,2.25-4.09,4.52-6.32,6.98c1.94,2.84,3.89,5.58,5.73,8.4c13.1,20.1,20.98,42.04,23.51,65.94
		c7.25,68.64-32.99,132.3-95.78,154.92c-57.5,20.71-109.66,9.46-155.26-31.42c-3.09-2.77-3.42-5.87-1.21-8.31
		c2.36-2.6,5.31-2.51,8.61,0.6c14.73,13.89,31.55,24.37,50.79,30.77c74.45,24.75,153.41-15.45,176.73-89.91
		c24.51-78.24-25.16-161.42-105.62-176.86C101.4,547.31,29.36,594.66,13.76,668.47c-8.3,39.27-0.64,75.75,22.33,108.84
		c0.8,1.16,1.72,2.25,2.4,3.48c1.47,2.62,0.82,5.66-1.55,7.14c-2.53,1.58-4.95,1.26-6.98-0.94c-1.03-1.12-1.89-2.4-2.76-3.65
		c-14.76-21.07-23.79-44.31-26.36-69.98c-3.85-38.43,5.58-73.28,28.31-104.52c0.27-0.38,0.48-0.8,0.89-1.47
		c-3.68-4.04-7.38-8.11-11.1-12.16c-6.97-7.6-6.68-13.97,0.97-20.93c5.91-5.38,11.81-10.77,17.71-16.17
		c6.71-6.13,13.4-5.86,19.65,0.87c3.28,3.53,6.57,7.06,9.72,10.7c1.28,1.48,2.26,1.91,4.09,0.76c15.46-9.72,32.27-16.03,50.15-19.64
		c0.93-0.19,2.23-1.6,2.29-2.52c0.26-3.73,0.11-7.49,0.11-11.44c-2.09-0.3-4.05-0.47-5.95-0.87c-5.95-1.25-10.8-6.53-10.99-12.61
		c-0.26-8.34-0.27-16.69-0.01-25.03c0.21-6.84,4.87-10.5,10.59-13.11C138.66,485.23,160.06,485.23,181.46,485.23z M36.69,598.67
		c7.72-7.15,15.19-14.06,22.89-21.18c-3.48-3.82-7.02-7.87-10.8-11.67c-0.61-0.61-2.79-0.63-3.47-0.04
		c-6.54,5.71-12.96,11.56-19.25,17.54c-0.62,0.59-0.72,2.73-0.16,3.39C29.36,590.82,33.08,594.72,36.69,598.67z M261.32,598.67
		c3.57-3.91,7.35-7.9,10.9-12.09c0.52-0.61,0.45-2.61-0.13-3.15c-6.39-6.04-12.9-11.96-19.5-17.79c-0.62-0.55-2.52-0.71-2.99-0.23
		c-3.91,3.99-7.62,8.16-11.19,12.06C246.21,584.68,253.67,591.59,261.32,598.67z M157.94,525.43c0-10.08,0-19.75,0-29.36
		c-5.91,0-11.58,0-17.17,0c0,9.94,0,19.61,0,29.36C146.59,525.43,152.18,525.43,157.94,525.43z M129.71,525.56
		c0-10.21,0-19.9,0-29.75c-2.94,0-5.64-0.1-8.32,0.03c-2.59,0.12-4.16,1.48-4.16,4.22c-0.01,7.17-0.02,14.33,0.01,21.5
		c0.01,2.53,1.33,3.94,3.9,3.98C123.93,525.59,126.73,525.56,129.71,525.56z M168.87,525.56c3.12,0,5.93,0.04,8.73-0.01
		c2.58-0.05,3.87-1.49,3.88-4.01c0.03-7.17,0.02-14.33,0.01-21.5c0-2.56-1.43-4-3.84-4.16c-2.88-0.2-5.78-0.05-8.78-0.05
		C168.87,505.85,168.87,515.45,168.87,525.56z M163.49,548.49c0-3.94,0-7.85,0-11.69c-9.85,0-19.42,0-29.03,0c0,4.1,0,7.91,0,11.69
		C144.25,548.49,153.82,548.49,163.49,548.49z"/>
	<path d="M154.63,588.97c-0.06,1.33-0.15,2.36-0.15,3.4c-0.01,22.69,0.02,45.37-0.05,68.06c-0.01,2.48,0.54,3.54,3.24,4.24
		c21.79,5.69,31.87,30.56,20.43,50.02c-0.47,0.8-0.94,1.59-1.25,2.12c17.71,17.71,35.31,35.3,53.08,53.08
		c7.6-8.3,13.98-17.81,18.46-28.44c14.23-33.75,12.44-66.72-5.37-98.78c-0.78-1.4-1.51-2.97-1.69-4.53c-0.3-2.69,1.32-4.52,3.8-5.23
		c2.7-0.77,5.01,0.3,6.17,2.82c4.07,8.81,8.97,17.39,11.78,26.6c20.66,67.54-20.7,137.32-89.81,152.13
		c-62.93,13.49-126.61-27.41-140.71-90.38c-14.25-63.63,23.69-126.62,86.98-142.31c44.6-11.06,83.49,0.98,116.05,33.36
		c3.38,3.36,3.61,6.38,0.94,8.84c-2.58,2.38-5.33,1.99-8.55-1.35c-16.03-16.62-35.31-27.34-57.98-31.87
		c-3.79-0.76-7.64-1.23-11.47-1.75C157.4,588.84,156.22,588.97,154.63,588.97z M76.18,616.65c5.48,6.36,6.34,8.82,3.63,11.27
		c-5.24,4.74-7.98-0.86-11.53-3.37c-17.09,19.28-26.27,41.53-27.93,67.2c4.3,0.65,10.35-1.28,10.46,5.47
		c0.11,7.04-6.21,4.95-10.46,5.74c1.66,25.75,10.91,48.01,27.98,67.3c3.37-2.68,6.37-8.15,11.17-3.55
		c5.09,4.86-0.94,7.87-3.29,11.45c19.31,16.92,41.46,26.28,67.06,27.77c0.72-4.21-1.03-9.86,5.1-10.34c7.6-0.6,5.38,6.24,6.49,10.28
		c29.23-1.08,56.07-16.43,66.16-27.62c-17.61-17.61-35.19-35.2-52.85-52.86c-6.76,4.01-11.98,5.76-18.06,5.92
		c-17.39,0.48-32.11-12.04-34.8-29.58c-2.48-16.19,8.41-32.67,24.78-36.98c3.03-0.8,3.49-2.08,3.48-4.78
		c-0.09-22.33-0.05-44.66-0.05-66.99c0-1.26,0-2.52,0-4.26C117.64,590.42,95.42,599.61,76.18,616.65z M149.11,720.52
		c12.81-0.1,23.37-10.8,23.14-23.44c-0.23-12.8-10.77-22.97-23.7-22.85c-12.53,0.12-23,10.87-22.78,23.41
		C125.98,710.3,136.51,720.62,149.11,720.52z"/>
</g>
</svg>
